<?xml version="1.0" encoding="UTF-8"?>
<svg xmlns="http://www.w3.org/2000/svg" xmlns:xlink="http://www.w3.org/1999/xlink" width="180px" height="53px" viewBox="0 0 180 53" version="1.1">
<g id="surface1">
<path style=" stroke:none;fill-rule:nonzero;fill:rgb(6.27451%,5.882353%,5.098039%);fill-opacity:1;" d="M 173.328125 53.332031 L 6.671875 53.332031 C 3.003906 53.332031 0.00390625 50.332031 0.00390625 46.667969 L 0.00390625 6.667969 C 0.00390625 3 3.003906 0 6.671875 0 L 173.328125 0 C 176.996094 0 179.996094 3 179.996094 6.667969 L 179.996094 46.667969 C 179.996094 50.332031 176.996094 53.332031 173.328125 53.332031 "/>
<path style=" stroke:none;fill-rule:nonzero;fill:rgb(63.529412%,63.529412%,63.137255%);fill-opacity:1;" d="M 173.328125 0 L 6.671875 0 C 3.003906 0 0.00390625 3 0.00390625 6.667969 L 0.00390625 46.667969 C 0.00390625 50.332031 3.003906 53.332031 6.671875 53.332031 L 173.328125 53.332031 C 176.996094 53.332031 179.996094 50.332031 179.996094 46.667969 L 179.996094 6.667969 C 179.996094 3 176.996094 0 173.328125 0 Z M 173.328125 1.066406 C 176.417969 1.066406 178.929688 3.578125 178.929688 6.667969 L 178.929688 46.667969 C 178.929688 49.753906 176.417969 52.265625 173.328125 52.265625 L 6.671875 52.265625 C 3.582031 52.265625 1.070312 49.753906 1.070312 46.667969 L 1.070312 6.667969 C 1.070312 3.578125 3.582031 1.066406 6.671875 1.066406 L 173.328125 1.066406 "/>
<path style=" stroke:none;fill-rule:nonzero;fill:rgb(100%,100%,100%);fill-opacity:1;" d="M 142.578125 40 L 145.066406 40 L 145.066406 23.332031 L 142.578125 23.332031 Z M 164.988281 29.335938 L 162.136719 36.5625 L 162.050781 36.5625 L 159.09375 29.335938 L 156.410156 29.335938 L 160.851562 39.4375 L 158.320312 45.054688 L 160.914062 45.054688 L 167.753906 29.335938 Z M 150.878906 38.105469 C 150.066406 38.105469 148.929688 37.699219 148.929688 36.691406 C 148.929688 35.40625 150.34375 34.910156 151.566406 34.910156 C 152.660156 34.910156 153.175781 35.148438 153.839844 35.46875 C 153.644531 37.011719 152.316406 38.105469 150.878906 38.105469 Z M 151.179688 28.972656 C 149.378906 28.972656 147.515625 29.765625 146.742188 31.523438 L 148.949219 32.445312 C 149.421875 31.523438 150.300781 31.222656 151.222656 31.222656 C 152.507812 31.222656 153.816406 31.996094 153.839844 33.367188 L 153.839844 33.539062 C 153.386719 33.28125 152.421875 32.894531 151.246094 32.894531 C 148.863281 32.894531 146.441406 34.203125 146.441406 36.648438 C 146.441406 38.878906 148.390625 40.316406 150.578125 40.316406 C 152.25 40.316406 153.175781 39.566406 153.753906 38.683594 L 153.839844 38.683594 L 153.839844 39.972656 L 156.242188 39.972656 L 156.242188 33.582031 C 156.242188 30.621094 154.03125 28.972656 151.179688 28.972656 Z M 135.804688 31.363281 L 132.265625 31.363281 L 132.265625 25.652344 L 135.804688 25.652344 C 137.664062 25.652344 138.71875 27.191406 138.71875 28.507812 C 138.71875 29.800781 137.664062 31.363281 135.804688 31.363281 Z M 135.742188 23.332031 L 129.777344 23.332031 L 129.777344 40 L 132.265625 40 L 132.265625 33.683594 L 135.742188 33.683594 C 138.496094 33.683594 141.207031 31.691406 141.207031 28.507812 C 141.207031 25.328125 138.496094 23.332031 135.742188 23.332031 Z M 103.234375 38.109375 C 101.515625 38.109375 100.074219 36.667969 100.074219 34.695312 C 100.074219 32.695312 101.515625 31.234375 103.234375 31.234375 C 104.929688 31.234375 106.261719 32.695312 106.261719 34.695312 C 106.261719 36.667969 104.929688 38.109375 103.234375 38.109375 Z M 106.089844 30.269531 L 106.003906 30.269531 C 105.445312 29.601562 104.371094 29 103.019531 29 C 100.183594 29 97.582031 31.492188 97.582031 34.695312 C 97.582031 37.871094 100.183594 40.34375 103.019531 40.34375 C 104.371094 40.34375 105.445312 39.742188 106.003906 39.054688 L 106.089844 39.054688 L 106.089844 39.871094 C 106.089844 42.039062 104.929688 43.199219 103.0625 43.199219 C 101.535156 43.199219 100.589844 42.105469 100.203125 41.179688 L 98.035156 42.082031 C 98.65625 43.585938 100.3125 45.433594 103.0625 45.433594 C 105.984375 45.433594 108.453125 43.714844 108.453125 39.527344 L 108.453125 29.34375 L 106.089844 29.34375 Z M 110.171875 40 L 112.664062 40 L 112.664062 23.332031 L 110.171875 23.332031 Z M 116.335938 34.5 C 116.273438 32.308594 118.035156 31.191406 119.300781 31.191406 C 120.289062 31.191406 121.125 31.6875 121.40625 32.394531 Z M 124.070312 32.609375 C 123.597656 31.34375 122.15625 29 119.214844 29 C 116.292969 29 113.867188 31.300781 113.867188 34.671875 C 113.867188 37.851562 116.273438 40.34375 119.492188 40.34375 C 122.09375 40.34375 123.597656 38.753906 124.21875 37.832031 L 122.285156 36.542969 C 121.640625 37.488281 120.761719 38.109375 119.492188 38.109375 C 118.226562 38.109375 117.324219 37.53125 116.746094 36.390625 L 124.328125 33.253906 Z M 63.660156 30.742188 L 63.660156 33.148438 L 69.417969 33.148438 C 69.246094 34.5 68.792969 35.488281 68.105469 36.175781 C 67.269531 37.011719 65.957031 37.9375 63.660156 37.9375 C 60.117188 37.9375 57.34375 35.082031 57.34375 31.535156 C 57.34375 27.992188 60.117188 25.136719 63.660156 25.136719 C 65.570312 25.136719 66.96875 25.886719 68 26.855469 L 69.695312 25.15625 C 68.257812 23.78125 66.34375 22.730469 63.660156 22.730469 C 58.804688 22.730469 54.722656 26.683594 54.722656 31.535156 C 54.722656 36.390625 58.804688 40.34375 63.660156 40.34375 C 66.28125 40.34375 68.257812 39.484375 69.800781 37.875 C 71.390625 36.285156 71.886719 34.050781 71.886719 32.246094 C 71.886719 31.6875 71.84375 31.171875 71.757812 30.742188 Z M 78.433594 38.109375 C 76.714844 38.109375 75.230469 36.691406 75.230469 34.671875 C 75.230469 32.632812 76.714844 31.234375 78.433594 31.234375 C 80.148438 31.234375 81.632812 32.632812 81.632812 34.671875 C 81.632812 36.691406 80.148438 38.109375 78.433594 38.109375 Z M 78.433594 29 C 75.292969 29 72.738281 31.386719 72.738281 34.671875 C 72.738281 37.9375 75.292969 40.34375 78.433594 40.34375 C 81.566406 40.34375 84.125 37.9375 84.125 34.671875 C 84.125 31.386719 81.566406 29 78.433594 29 Z M 90.847656 38.109375 C 89.132812 38.109375 87.648438 36.691406 87.648438 34.671875 C 87.648438 32.632812 89.132812 31.234375 90.847656 31.234375 C 92.566406 31.234375 94.050781 32.632812 94.050781 34.671875 C 94.050781 36.691406 92.566406 38.109375 90.847656 38.109375 Z M 90.847656 29 C 87.714844 29 85.15625 31.386719 85.15625 34.671875 C 85.15625 37.9375 87.714844 40.34375 90.847656 40.34375 C 93.984375 40.34375 96.542969 37.9375 96.542969 34.671875 C 96.542969 31.386719 93.984375 29 90.847656 29 "/>
<path style=" stroke:none;fill-rule:nonzero;fill:rgb(92.156863%,19.215686%,19.215686%);fill-opacity:1;" d="M 27.621094 25.898438 L 13.429688 40.964844 C 13.429688 40.96875 13.429688 40.96875 13.429688 40.972656 C 13.867188 42.609375 15.359375 43.816406 17.132812 43.816406 C 17.84375 43.816406 18.507812 43.621094 19.078125 43.285156 L 19.125 43.261719 L 35.101562 34.039062 L 27.621094 25.898438 "/>
<path style=" stroke:none;fill-rule:nonzero;fill:rgb(96.470588%,71.372549%,4.313725%);fill-opacity:1;" d="M 41.984375 23.335938 L 41.96875 23.324219 L 35.070312 19.324219 L 27.300781 26.242188 L 35.097656 34.039062 L 41.960938 30.078125 C 43.164062 29.429688 43.980469 28.160156 43.980469 26.699219 C 43.980469 25.246094 43.175781 23.984375 41.984375 23.335938 "/>
<path style=" stroke:none;fill-rule:nonzero;fill:rgb(34.117647%,47.058824%,77.254902%);fill-opacity:1;" d="M 13.425781 12.371094 C 13.339844 12.683594 13.296875 13.015625 13.296875 13.355469 L 13.296875 39.980469 C 13.296875 40.320312 13.339844 40.652344 13.425781 40.964844 L 28.109375 26.285156 L 13.425781 12.371094 "/>
<path style=" stroke:none;fill-rule:nonzero;fill:rgb(23.137255%,67.843137%,28.627451%);fill-opacity:1;" d="M 27.726562 26.667969 L 35.074219 19.324219 L 19.113281 10.070312 C 18.535156 9.722656 17.855469 9.523438 17.132812 9.523438 C 15.359375 9.523438 13.863281 10.726562 13.425781 12.367188 C 13.425781 12.367188 13.425781 12.367188 13.425781 12.371094 L 27.726562 26.667969 "/>
<path style="fill-rule:nonzero;fill:rgb(100%,100%,100%);fill-opacity:1;stroke-width:0.26666;stroke-linecap:butt;stroke-linejoin:miter;stroke:rgb(100%,100%,100%);stroke-opacity:1;stroke-miterlimit:10;" d="M 63.191406 13.042969 L 59.304688 13.042969 L 59.304688 14.003906 L 62.21875 14.003906 C 62.140625 14.789062 61.828125 15.40625 61.300781 15.855469 C 60.773438 16.300781 60.097656 16.527344 59.304688 16.527344 C 58.429688 16.527344 57.691406 16.222656 57.085938 15.621094 C 56.492188 15.003906 56.1875 14.238281 56.1875 13.320312 C 56.1875 12.402344 56.492188 11.640625 57.085938 11.023438 C 57.691406 10.417969 58.429688 10.117188 59.304688 10.117188 C 59.75 10.117188 60.179688 10.195313 60.570312 10.363281 C 60.960938 10.53125 61.277344 10.765625 61.523438 11.070313 L 62.261719 10.328125 C 61.925781 9.949219 61.5 9.65625 60.972656 9.445313 C 60.445312 9.230469 59.898438 9.128906 59.304688 9.128906 C 58.140625 9.128906 57.152344 9.535156 56.34375 10.339844 C 55.539062 11.148438 55.136719 12.144531 55.136719 13.320312 C 55.136719 14.5 55.539062 15.496094 56.34375 16.300781 C 57.152344 17.109375 58.140625 17.511719 59.304688 17.511719 C 60.527344 17.511719 61.5 17.121094 62.25 16.324219 C 62.910156 15.664062 63.25 14.765625 63.25 13.644531 C 63.25 13.457031 63.226562 13.253906 63.191406 13.042969 Z M 64.699219 9.308594 L 64.699219 17.332031 L 69.386719 17.332031 L 69.386719 16.347656 L 65.730469 16.347656 L 65.730469 13.800781 L 69.027344 13.800781 L 69.027344 12.839844 L 65.730469 12.839844 L 65.730469 10.296875 L 69.386719 10.296875 L 69.386719 9.308594 Z M 75.953125 10.296875 L 75.953125 9.308594 L 70.441406 9.308594 L 70.441406 10.296875 L 72.683594 10.296875 L 72.683594 17.332031 L 73.714844 17.332031 L 73.714844 10.296875 Z M 80.949219 9.308594 L 79.917969 9.308594 L 79.917969 17.332031 L 80.949219 17.332031 Z M 87.753906 10.296875 L 87.753906 9.308594 L 82.238281 9.308594 L 82.238281 10.296875 L 84.480469 10.296875 L 84.480469 17.332031 L 85.511719 17.332031 L 85.511719 10.296875 Z M 98.160156 10.351563 C 97.363281 9.535156 96.390625 9.128906 95.222656 9.128906 C 94.058594 9.128906 93.082031 9.535156 92.285156 10.339844 C 91.492188 11.136719 91.101562 12.132812 91.101562 13.320312 C 91.101562 14.507812 91.492188 15.507812 92.285156 16.300781 C 93.082031 17.109375 94.058594 17.511719 95.222656 17.511719 C 96.378906 17.511719 97.363281 17.109375 98.160156 16.300781 C 98.957031 15.507812 99.347656 14.507812 99.347656 13.320312 C 99.347656 12.144531 98.957031 11.148438 98.160156 10.351563 Z M 93.027344 11.023438 C 93.621094 10.417969 94.347656 10.117188 95.222656 10.117188 C 96.097656 10.117188 96.828125 10.417969 97.410156 11.023438 C 98.003906 11.617188 98.296875 12.390625 98.296875 13.320312 C 98.296875 14.253906 98.003906 15.023438 97.410156 15.617188 C 96.828125 16.222656 96.097656 16.527344 95.222656 16.527344 C 94.347656 16.527344 93.621094 16.222656 93.027344 15.617188 C 92.445312 15.011719 92.152344 14.253906 92.152344 13.320312 C 92.152344 12.390625 92.445312 11.628906 93.027344 11.023438 Z M 101.796875 12.335938 L 101.753906 10.789063 L 101.796875 10.789063 L 105.875 17.332031 L 106.953125 17.332031 L 106.953125 9.308594 L 105.921875 9.308594 L 105.921875 14.003906 L 105.964844 15.550781 L 105.921875 15.550781 L 102.023438 9.308594 L 100.765625 9.308594 L 100.765625 17.332031 L 101.796875 17.332031 Z M 101.796875 12.335938 " transform="matrix(1,0,0,1,0,-0.000000000000003553)"/>
</g>
</svg>
