<?xml version="1.0" encoding="utf-8"?>
<!-- Generator: Adobe Illustrator 26.1.0, SVG Export Plug-In . SVG Version: 6.00 Build 0)  -->
<svg version="1.1"
	 id="svg2" inkscape:export-ydpi="96" inkscape:version="1.0.1 (3bc2e813f5, 2020-09-07)" sodipodi:version="0.32" xmlns:cc="http://creativecommons.org/ns#" xmlns:dc="http://purl.org/dc/elements/1.1/" xmlns:inkscape="http://www.inkscape.org/namespaces/inkscape" xmlns:rdf="http://www.w3.org/1999/02/22-rdf-syntax-ns#" xmlns:sodipodi="http://sodipodi.sourceforge.net/DTD/sodipodi-0.dtd" xmlns:svg="http://www.w3.org/2000/svg"
	 xmlns="http://www.w3.org/2000/svg" xmlns:xlink="http://www.w3.org/1999/xlink" x="0px" y="0px" viewBox="0 0 234 333"
	 style="enable-background:new 0 0 234 333;" xml:space="preserve">
<style type="text/css">
	.st0{fill:#FFFFFF;stroke:#313390;stroke-width:1.605;stroke-miterlimit:4.9905;}
	.st1{fill-rule:evenodd;clip-rule:evenodd;fill:#313390;stroke:#313390;stroke-width:0.0334;stroke-miterlimit:12.4762;}
	.st2{fill-rule:evenodd;clip-rule:evenodd;fill:#FFFFFF;stroke:#313390;stroke-width:0.0334;stroke-miterlimit:12.4762;}
	.st3{fill-rule:evenodd;clip-rule:evenodd;fill:#FFFFFF;stroke:#FFFFFF;stroke-width:0.0334;stroke-miterlimit:12.4762;}
	
		.st4{fill-rule:evenodd;clip-rule:evenodd;fill:#313390;stroke:#313390;stroke-width:1.245;stroke-linecap:round;stroke-linejoin:round;stroke-miterlimit:4.9905;}
	.st5{fill-rule:evenodd;clip-rule:evenodd;fill:#313390;stroke:#313390;stroke-width:1.2449;stroke-miterlimit:4.9905;}
	.st6{fill:none;stroke:#313390;stroke-width:0.0334;stroke-miterlimit:12.4762;}
	.st7{fill-rule:evenodd;clip-rule:evenodd;fill:#FFFFFF;stroke:#313390;stroke-width:1.2449;stroke-miterlimit:4.9905;}
	.st8{fill:none;stroke:#313390;stroke-width:1.605;stroke-miterlimit:12.4762;}
</style>
<sodipodi:namedview  bordercolor="#666666" borderopacity="1.0" fit-margin-bottom="0" fit-margin-left="0" fit-margin-right="0" fit-margin-top="0" gridtolerance="10.0" guidetolerance="10.0" height="303px" id="base" inkscape:current-layer="svg2" inkscape:cx="125.46966" inkscape:cy="167.03131" inkscape:document-rotation="0" inkscape:guide-bbox="true" inkscape:pageopacity="0.0" inkscape:pageshadow="2" inkscape:showpageshadow="false" inkscape:snap-global="false" inkscape:snap-others="false" inkscape:window-height="1003" inkscape:window-maximized="0" inkscape:window-width="1620" inkscape:window-x="29" inkscape:window-y="13" inkscape:zoom="0.9983453" objecttolerance="10.0" pagecolor="#ffffff" showborder="false" showgrid="false" showguides="true" width="209px">
	</sodipodi:namedview>
<path id="path5-6" class="st0" d="M221.691,311.94c0,4.806-3.879,8.747-8.635,8.747H20.933c-4.745,0-8.624-3.941-8.624-8.747V21.062
	c0-4.813,3.879-8.748,8.624-8.748h192.123c4.757,0,8.635,3.936,8.635,8.748V311.94z"/>
<path id="path7-2" class="st1" d="M46.73,53.523c43.342,0,86.684,0,130.026,0c1.021,0,10.845-0.474,10.845,0.374
	c0,4.759,0,9.518,0,14.277c0,23.623,0,47.246,0,70.87c0,45.842,0,91.684,0,137.527c0,0.326,0.218,1.813-0.179,1.813
	c-1.943,0-3.885,0-5.827,0c-10.086,0-20.171,0-30.256,0c-27.368,0-54.735,0-82.102,0c-7.218,0-14.435,0-21.652,0
	c-1.837,0-0.854-5.173-0.854-6.653c0-20.633,0-41.266,0-61.899c0-49.775,0-99.549,0-149.323C46.73,58.179,46.73,55.851,46.73,53.523
	"/>
<path id="path9-8" class="st2" d="M89.494,134.355c5.62,0,55.341-0.4,55.341,0.395c0,21.338,0,42.676,0,64.016
	c0,0.642-55.341,0.077-55.341,0.239c0-21.219,0-42.438,0-63.656C89.494,135.017,89.494,134.685,89.494,134.355"/>
<path id="path11-8" class="st3" d="M117.165,128.476c-5.45,6.369-10.901,12.737-16.351,19.106
	c-3.675,4.295-7.35,8.589-11.026,12.883c-0.853,0.997-5.325,4.837-5.325,6.222c0,1.273,4.115,4.808,4.898,5.723
	c3.818,4.462,7.636,8.921,11.454,13.383c5.451,6.368,10.901,12.736,16.351,19.106c5.45-6.369,10.9-12.738,16.351-19.106
	c3.675-4.295,7.35-8.589,11.025-12.883c0.853-0.997,5.326-4.837,5.326-6.223c0-1.273-4.115-4.807-4.898-5.722
	c-3.817-4.461-7.636-8.922-11.454-13.383C128.066,141.213,122.615,134.845,117.165,128.476"/>
<path id="path13-0" sodipodi:nodetypes="csssscsscssc" class="st1" d="M92.225,137.186c0,0,5.118-0.067,11.273-0.141
	c6.263-0.075,13.779-0.154,18.789-0.181c5.889-0.032,17.237,0.107,17.237,0.107c2.898,0,2.795,0.572,2.795,3.517v38.745v14.632
	c0,2.672-1.531,2.1-4.057,2.108l-33.486,0.107H94.094c-1.982,0-2.084-1.3-2.084-3.195v-52.694"/>
<path id="path15-4" class="st1" d="M117.165,131.416c-4.936,5.767-9.871,11.534-14.807,17.301
	c-3.519,4.111-7.037,8.222-10.556,12.334c-0.772,0.903-4.825,4.383-4.825,5.637c0,1.144,3.695,4.318,4.399,5.14
	c3.469,4.054,6.939,8.108,10.408,12.162c5.127,5.99,10.253,11.98,15.38,17.971c4.936-5.768,9.871-11.534,14.806-17.3
	c3.519-4.111,7.038-8.222,10.556-12.334c0.772-0.903,4.824-4.384,4.824-5.638c0-1.143-3.695-4.318-4.398-5.139
	c-3.47-4.054-6.939-8.108-10.408-12.162C127.419,143.396,122.291,137.406,117.165,131.416"/>
<path id="path17-2" class="st2" d="M97.041,143.173c10.925,0,21.849,0,32.774,0c1.364,0,7.474-0.933,7.474,0.754
	c0,4.987,0,9.973,0,14.959c0,2.194,0.027,31.318-0.025,31.318c-11.146,0-22.29,0-33.436,0c-1.331,0-6.788,0.92-6.788-0.755
	c0-4.985,0-9.972,0-14.959C97.041,164.051,97.041,153.612,97.041,143.173"/>
<path id="path19-9" class="st3" d="M117.165,137.294c-4.192,4.899-8.385,9.798-12.577,14.697c-2.81,3.284-5.621,6.567-8.431,9.851
	c-0.664,0.776-4.147,3.767-4.147,4.846c0,0.967,3.124,3.651,3.718,4.345c2.953,3.451,5.907,6.902,8.86,10.351
	c4.192,4.9,8.385,9.799,12.577,14.698c4.193-4.898,8.385-9.798,12.577-14.698c2.811-3.283,5.622-6.566,8.43-9.85
	c0.665-0.776,4.148-3.768,4.148-4.846c0-0.966-3.124-3.65-3.718-4.344c-2.953-3.451-5.907-6.901-8.86-10.352
	C125.55,147.092,121.359,142.193,117.165,137.294"/>
<path id="path21-7" class="st1" d="M99.557,146.112c10.731,0,21.463,0,32.194,0c3.875,0,3.023,0.348,3.023,4.28
	c0,6.603,0,13.205,0,19.807c0,5.403,0,10.806,0,16.209c0,1.9-6.585,0.856-8.122,0.856c-6.804,0-13.609,0-20.414,0
	c-2.374,0-6.681,1.404-6.681-1.49C99.556,172.553,99.556,159.333,99.557,146.112"/>
<path id="path23-9" class="st1" d="M117.165,140.233c-3.677,4.297-7.354,8.594-11.032,12.891c-2.654,3.101-5.308,6.202-7.962,9.303
	c-0.583,0.681-3.646,3.312-3.646,4.26c0,0.837,2.705,3.161,3.219,3.762c2.605,3.043,5.209,6.086,7.813,9.129
	c3.87,4.522,7.739,9.043,11.608,13.563c3.678-4.297,7.355-8.594,11.033-12.891c2.654-3.1,5.308-6.202,7.961-9.303
	c0.583-0.681,3.646-3.313,3.646-4.26c0-0.836-2.705-3.161-3.218-3.761c-2.605-3.044-5.209-6.087-7.814-9.13
	C124.904,149.275,121.034,144.755,117.165,140.233"/>
<path id="path25-9" class="st2" d="M117.165,143.173c-3.259,3.808-6.518,7.617-9.778,11.425c-2.292,2.679-4.584,5.357-6.876,8.035
	c-0.555,0.649-3.471,3.154-3.471,4.055c0,0.79,2.553,2.983,3.039,3.55c2.246,2.625,4.493,5.249,6.739,7.875
	c3.449,4.029,6.898,8.059,10.347,12.09c3.259-3.809,6.518-7.617,9.778-11.426c2.29-2.677,4.583-5.356,6.875-8.033
	c0.556-0.65,3.47-3.154,3.47-4.056c0-0.788-2.553-2.983-3.037-3.55c-2.246-2.625-4.494-5.25-6.74-7.875
	C124.064,151.233,120.615,147.203,117.165,143.173"/>
<path id="path27-0" class="st3" d="M102.072,149.051c10.019,0,20.038,0,30.057,0c0.263,0,0.13,28.852,0.13,31.604
	c0,0.557,0.393,3.233,0,3.668c-0.439,0.486-4.097,0-4.716,0c-6.695,0-13.39,0-20.085,0c-1.752,0-3.504,0-5.255,0
	c-0.294,0-0.131-2.796-0.131-3.121c0-6.578,0-13.157,0-19.735C102.072,157.329,102.072,153.19,102.072,149.051"/>
<path id="path29-2" sodipodi:nodetypes="cccscccccsccc" class="st4" d="M117.003,149.051c-2.516,2.94-4.868,5.879-7.384,8.818
	c-1.73,2.021-3.459,4.042-5.189,6.063c-0.375,0.438-2.359,2.145-2.359,2.755c0,0.612,1.984,2.318,2.359,2.756
	c1.73,2.021,3.459,4.042,5.189,6.062c2.516,2.94,5.031,5.878,7.547,8.818c2.516-2.94,5.03-5.878,7.547-8.818
	c1.73-2.021,3.459-4.042,5.187-6.062c0.376-0.438,2.359-2.144,2.359-2.756c0-0.611-1.984-2.317-2.359-2.755
	c-1.728-2.021-3.458-4.042-5.187-6.063C122.196,154.93,119.519,151.991,117.003,149.051"/>
<path id="path31-7" class="st2" d="M154.898,131.416c-1.677,0-3.354,0-5.03,0c1.677,1.959,3.354,3.919,5.03,5.878
	C154.898,135.335,154.898,133.375,154.898,131.416"/>
<path id="path33-9" class="st2" d="M154.898,140.233c-1.677-1.959-3.354-3.919-5.03-5.878c0,1.904,0,3.809,0,5.714
	C149.868,140.414,154.25,140.233,154.898,140.233"/>
<path id="path35-7" class="st2" d="M79.432,131.416c1.677,0,3.353,0,5.03,0c-1.677,1.959-3.353,3.919-5.03,5.878
	C79.432,135.335,79.432,133.375,79.432,131.416"/>
<path id="path37-3" class="st2" d="M79.432,140.233c1.677-1.959,3.353-3.919,5.03-5.878c0,1.904,0,3.809,0,5.714
	C84.463,140.414,80.081,140.233,79.432,140.233"/>
<path id="path39-7" class="st2" d="M84.463,193.141c-1.677,0-3.353,0-5.03,0c1.677,1.96,3.353,3.92,5.03,5.878
	C84.463,197.061,84.463,195.101,84.463,193.141"/>
<path id="path41-4" class="st2" d="M84.463,201.959c-1.677-1.96-3.353-3.92-5.03-5.878c0,1.904,0,3.809,0,5.714
	C79.432,202.141,83.815,201.959,84.463,201.959"/>
<path id="path43-4" class="st2" d="M149.868,193.141c1.677,0,3.354,0,5.03,0c-1.677,1.96-3.354,3.92-5.03,5.878
	C149.868,197.061,149.868,195.101,149.868,193.141"/>
<path id="path45-1" class="st2" d="M149.868,201.959c1.677-1.96,3.354-3.92,5.03-5.878c0,1.904,0,3.809,0,5.714
	C154.898,202.141,150.516,201.959,149.868,201.959"/>
<path id="path47-3" class="st2" d="M84.463,172.567c-1.677,0-3.353,0-5.03,0c1.677,1.96,3.353,3.918,5.03,5.878
	C84.463,176.485,84.463,174.527,84.463,172.567"/>
<path id="path49-5" class="st2" d="M84.463,181.384c-1.677-1.959-3.353-3.918-5.03-5.878c0,1.905,0,3.809,0,5.714
	C79.432,181.565,83.815,181.384,84.463,181.384"/>
<path id="path51-7" class="st2" d="M79.432,151.991c1.677,0,3.353,0,5.03,0c-1.677,1.959-3.353,3.919-5.03,5.878
	C79.432,155.91,79.432,153.95,79.432,151.991"/>
<path id="path53-7" class="st2" d="M79.432,160.809c1.677-1.96,3.353-3.919,5.03-5.879c0,1.905,0,3.81,0,5.714
	C84.463,160.989,80.081,160.809,79.432,160.809"/>
<path id="path55-8" class="st2" d="M154.898,151.991c-1.677,0-3.354,0-5.03,0c1.677,1.959,3.354,3.919,5.03,5.878
	C154.898,155.91,154.898,153.95,154.898,151.991"/>
<path id="path57-1" class="st2" d="M154.898,160.809c-1.677-1.96-3.354-3.919-5.03-5.879c0,1.905,0,3.81,0,5.714
	C149.868,160.989,154.25,160.809,154.898,160.809"/>
<path id="path59-6" class="st2" d="M149.868,172.567c1.677,0,3.354,0,5.03,0c-1.677,1.96-3.354,3.918-5.03,5.878
	C149.868,176.485,149.868,174.527,149.868,172.567"/>
<path id="path61-3" class="st2" d="M149.868,181.384c1.677-1.959,3.354-3.918,5.03-5.878c0,1.905,0,3.809,0,5.714
	C154.898,181.565,150.516,181.384,149.868,181.384"/>
<path id="path63-7" class="st5" d="M99.619,43.602c-1.028-2.578-2.116-5.204-2.821-7.897c-0.636-2.427-1.142-8.354,2.046-9.519
	c3.058-1.117,4.17,4.24,4.13,6.345c-0.06,3.162-1.544,6.392-2.661,9.298C100.086,42.421,99.854,43.015,99.619,43.602"/>
<path id="path65-6" class="st5" d="M99.603,43.661c-2.528-1.078-5.343-2.135-7.58-3.772c-1.986-1.454-5.149-5.762-3.304-8.397
	c1.863-2.66,5.75,0.389,7.005,2.186c1.801,2.576,2.648,6.1,3.593,9.072C99.414,43.053,99.509,43.359,99.603,43.661"/>
<path id="path67-5" class="st5" d="M99.611,43.661c2.528-1.079,5.342-2.135,7.58-3.772c1.986-1.453,5.149-5.763,3.304-8.397
	c-1.863-2.661-5.75,0.389-7.006,2.186c-1.836,2.627-2.696,6.239-3.657,9.273C99.758,43.186,99.684,43.426,99.611,43.661"/>
<path id="path69-5" class="st5" d="M93.134,44.014c-2.046-0.615-4.579-0.412-5.886,1.508c-0.697,1.023-0.855,4.989,1.363,4.218
	c0.387-0.134,0.703-1.873,1.174-2.273c0.899-0.764,2.581-0.74,3.673-0.828c1.468-0.118,2.993,0.041,4.436-0.161
	c0.002-0.009,0.004-0.017,0.009-0.025C96.533,45.38,94.79,44.533,93.134,44.014"/>
<path id="path71-0" class="st5" d="M105.98,44.014c2.046-0.616,4.579-0.412,5.886,1.508c0.697,1.023,0.856,4.99-1.363,4.218
	c-0.387-0.134-0.702-1.872-1.173-2.273c-0.898-0.764-2.581-0.74-3.673-0.828c-1.469-0.118-2.993,0.041-4.436-0.161
	c-0.002-0.009-0.004-0.017-0.009-0.025C102.58,45.38,104.323,44.533,105.98,44.014"/>
<path id="path73-6" class="st5" d="M97.88,49.726c0.299,2.59,4.731,1.331,2.611-2.233C99.002,44.988,98.149,47.331,97.88,49.726"/>
<path id="path75-2" class="st5" d="M134.836,43.602c-1.029-2.577-2.116-5.204-2.821-7.897c-0.636-2.427-1.142-8.353,2.045-9.519
	c3.059-1.118,4.171,4.241,4.13,6.345c-0.06,3.162-1.543,6.392-2.66,9.298C135.303,42.421,135.072,43.014,134.836,43.602"/>
<path id="path77-0" class="st5" d="M134.82,43.661c-2.527-1.078-5.343-2.135-7.58-3.772c-1.986-1.454-5.149-5.763-3.304-8.397
	c1.863-2.659,5.75,0.388,7.007,2.186c1.801,2.576,2.646,6.1,3.592,9.072C134.631,43.053,134.726,43.359,134.82,43.661"/>
<path id="path79-7" class="st5" d="M134.829,43.661c2.527-1.079,5.342-2.135,7.58-3.772c1.987-1.454,5.149-5.762,3.303-8.397
	c-1.862-2.66-5.75,0.389-7.005,2.186c-1.838,2.627-2.694,6.239-3.655,9.273C134.976,43.187,134.903,43.426,134.829,43.661"/>
<path id="path81-1" class="st5" d="M128.35,44.014c-2.045-0.616-4.579-0.411-5.885,1.508c-0.697,1.024-0.857,4.99,1.363,4.218
	c0.385-0.134,0.702-1.873,1.173-2.273c0.897-0.764,2.581-0.74,3.673-0.828c1.468-0.118,2.993,0.041,4.435-0.161
	c0.001-0.009,0.005-0.017,0.009-0.025C131.749,45.38,130.009,44.533,128.35,44.014"/>
<path id="path83-2" class="st5" d="M141.197,44.014c2.045-0.616,4.58-0.411,5.887,1.508c0.696,1.023,0.854,4.989-1.363,4.218
	c-0.388-0.134-0.703-1.873-1.175-2.273c-0.897-0.764-2.581-0.74-3.673-0.828c-1.468-0.118-2.993,0.041-4.436-0.161
	c-0.001-0.009-0.004-0.017-0.009-0.025C137.798,45.381,139.54,44.533,141.197,44.014"/>
<path id="path85-1" class="st5" d="M133.097,49.726c0.299,2.59,4.732,1.331,2.612-2.233
	C134.22,44.987,133.366,47.332,133.097,49.726"/>
<path id="path87-4" class="st5" d="M170.054,43.602c-1.027-2.579-2.116-5.204-2.822-7.897c-0.635-2.427-1.142-8.354,2.047-9.519
	c3.058-1.117,4.169,4.241,4.129,6.345c-0.061,3.162-1.544,6.391-2.661,9.298C170.522,42.421,170.289,43.015,170.054,43.602"/>
<path id="path89-3" class="st5" d="M170.038,43.661c-2.529-1.079-5.342-2.135-7.581-3.772c-1.986-1.454-5.148-5.763-3.303-8.397
	c1.862-2.66,5.75,0.389,7.005,2.186c1.836,2.627,2.696,6.238,3.655,9.273C169.891,43.187,169.965,43.426,170.038,43.661"/>
<path id="path91-3" class="st5" d="M170.046,43.661c2.529-1.078,5.343-2.135,7.581-3.772c1.986-1.454,5.148-5.763,3.304-8.397
	c-1.863-2.66-5.751,0.389-7.007,2.186c-1.836,2.627-2.696,6.239-3.655,9.273C170.194,43.186,170.119,43.426,170.046,43.661"/>
<path id="path93-4" class="st5" d="M163.569,44.014c-2.046-0.616-4.58-0.411-5.887,1.508c-0.697,1.024-0.856,4.989,1.363,4.218
	c0.387-0.134,0.702-1.873,1.173-2.273c0.899-0.764,2.583-0.74,3.673-0.828c1.469-0.118,2.993,0.041,4.436-0.161
	c0.003-0.009,0.005-0.017,0.009-0.025C166.967,45.38,165.227,44.533,163.569,44.014"/>
<path id="path95-7" class="st5" d="M176.414,44.014c2.047-0.615,4.581-0.412,5.887,1.508c0.697,1.023,0.857,4.989-1.363,4.218
	c-0.385-0.134-0.702-1.872-1.173-2.273c-0.899-0.764-2.581-0.74-3.673-0.828c-1.468-0.118-2.993,0.041-4.436-0.161
	c-0.003-0.009-0.005-0.017-0.007-0.025C173.016,45.38,174.758,44.533,176.414,44.014"/>
<path id="path97-8" class="st5" d="M168.315,49.726c0.3,2.591,4.731,1.329,2.612-2.233
	C169.437,44.987,168.585,47.332,168.315,49.726"/>
<path id="path99-2" class="st5" d="M64.402,43.602c-1.029-2.577-2.116-5.204-2.821-7.897c-0.636-2.427-1.142-8.354,2.046-9.519
	c3.059-1.118,4.17,4.241,4.13,6.345c-0.06,3.162-1.544,6.391-2.661,9.298C64.868,42.421,64.636,43.014,64.402,43.602"/>
<path id="path101-0" class="st5" d="M64.385,43.661c-2.529-1.079-5.342-2.135-7.58-3.772c-1.986-1.454-5.149-5.762-3.304-8.397
	c1.863-2.66,5.75,0.389,7.006,2.186c1.801,2.576,2.648,6.1,3.593,9.072C64.196,43.053,64.291,43.359,64.385,43.661"/>
<path id="path103-0" class="st5" d="M64.393,43.661c2.528-1.078,5.343-2.135,7.58-3.772c1.986-1.454,5.149-5.762,3.304-8.397
	c-1.863-2.66-5.75,0.389-7.006,2.186c-1.801,2.576-2.647,6.1-3.593,9.072C64.582,43.053,64.488,43.359,64.393,43.661"/>
<path id="path105-7" class="st5" d="M57.916,44.014c-2.046-0.616-4.579-0.411-5.886,1.508c-0.697,1.023-0.856,4.99,1.363,4.218
	c0.386-0.134,0.702-1.873,1.173-2.273c0.898-0.764,2.581-0.74,3.673-0.828c1.469-0.118,2.993,0.041,4.436-0.161
	c0.001-0.009,0.004-0.017,0.009-0.025C61.315,45.381,59.573,44.533,57.916,44.014"/>
<path id="path107-7" class="st5" d="M70.762,44.014c2.046-0.615,4.58-0.412,5.887,1.508c0.697,1.023,0.856,4.989-1.363,4.218
	c-0.387-0.134-0.703-1.873-1.174-2.273c-0.898-0.764-2.581-0.74-3.673-0.828c-1.468-0.118-2.993,0.041-4.436-0.161
	c-0.002-0.009-0.005-0.017-0.009-0.025C67.363,45.38,69.105,44.534,70.762,44.014"/>
<path id="path109-7" class="st5" d="M62.662,49.726c0.3,2.59,4.731,1.331,2.612-2.233C63.785,44.988,62.931,47.332,62.662,49.726"/>
<path id="path111-3" class="st5" d="M99.305,288.303c-1.028,2.578-2.116,5.204-2.821,7.897c-0.635,2.426-1.142,8.355,2.046,9.519
	c3.059,1.117,4.169-4.241,4.129-6.345c-0.06-3.164-1.544-6.392-2.66-9.298C99.771,289.485,99.54,288.891,99.305,288.303"/>
<path id="path113-4" class="st5" d="M99.288,288.245c-2.529,1.077-5.342,2.134-7.58,3.772c-1.987,1.454-5.149,5.761-3.304,8.396
	c1.863,2.66,5.75-0.388,7.006-2.185c1.801-2.577,2.647-6.101,3.593-9.073C99.099,288.853,99.194,288.546,99.288,288.245"/>
<path id="path115-6" class="st5" d="M99.297,288.245c2.529,1.077,5.342,2.134,7.58,3.772c1.987,1.454,5.149,5.761,3.304,8.396
	c-1.863,2.66-5.75-0.388-7.006-2.185c-1.836-2.628-2.696-6.239-3.655-9.273C99.444,288.719,99.371,288.48,99.297,288.245"/>
<path id="path117-5" class="st5" d="M92.819,287.892c-2.046,0.614-4.579,0.41-5.886-1.51c-0.697-1.022-0.856-4.989,1.363-4.218
	c0.386,0.134,0.703,1.873,1.173,2.273c0.899,0.764,2.581,0.741,3.673,0.828c1.468,0.118,2.994-0.04,4.436,0.162
	c0.001,0.01,0.004,0.017,0.009,0.025C96.219,286.525,94.476,287.372,92.819,287.892"/>
<path id="path119-5" class="st5" d="M105.665,287.892c2.046,0.614,4.58,0.41,5.886-1.51c0.697-1.022,0.856-4.988-1.363-4.218
	c-0.386,0.134-0.703,1.873-1.174,2.273c-0.899,0.764-2.581,0.741-3.673,0.828c-1.468,0.118-2.994-0.04-4.436,0.162
	c-0.002,0.009-0.005,0.017-0.009,0.025C102.265,286.525,104.009,287.372,105.665,287.892"/>
<path id="path121-2" class="st5" d="M97.565,282.18c0.299-2.59,4.731-1.332,2.612,2.232
	C98.688,286.918,97.836,284.575,97.565,282.18"/>
<path id="path123-6" class="st5" d="M134.522,288.303c-1.029,2.578-2.116,5.204-2.821,7.897c-0.636,2.426-1.142,8.354,2.045,9.519
	c3.059,1.117,4.171-4.241,4.13-6.345c-0.06-3.161-1.543-6.394-2.66-9.298C134.989,289.485,134.758,288.891,134.522,288.303"/>
<path id="path125-8" class="st5" d="M134.506,288.245c-2.529,1.077-5.343,2.134-7.58,3.772c-1.986,1.454-5.149,5.761-3.304,8.396
	c1.863,2.66,5.75-0.388,7.006-2.185c1.836-2.628,2.694-6.239,3.655-9.273C134.358,288.72,134.432,288.479,134.506,288.245"/>
<path id="path127-8" class="st5" d="M134.515,288.245c2.529,1.077,5.342,2.134,7.58,3.772c1.987,1.454,5.149,5.761,3.303,8.396
	c-1.863,2.66-5.75-0.388-7.005-2.185c-1.836-2.628-2.696-6.239-3.657-9.273C134.662,288.72,134.588,288.479,134.515,288.245"/>
<path id="path129-5" class="st5" d="M128.036,287.892c-2.045,0.614-4.579,0.41-5.886-1.51c-0.696-1.022-0.856-4.989,1.363-4.218
	c0.387,0.134,0.703,1.873,1.175,2.273c0.899,0.764,2.58,0.741,3.673,0.828c1.467,0.118,2.994-0.04,4.435,0.162
	c0.001,0.009,0.005,0.017,0.009,0.025C131.436,286.525,129.693,287.372,128.036,287.892"/>
<path id="path131-4" class="st5" d="M140.883,287.892c2.045,0.614,4.579,0.41,5.887-1.51c0.695-1.022,0.854-4.988-1.363-4.218
	c-0.388,0.134-0.703,1.873-1.175,2.273c-0.899,0.764-2.581,0.741-3.674,0.828c-1.467,0.118-2.993-0.04-4.435,0.162
	c-0.001,0.01-0.004,0.017-0.009,0.025C137.483,286.525,139.226,287.372,140.883,287.892"/>
<path id="path133-2" class="st5" d="M132.781,282.18c0.301-2.59,4.732-1.332,2.613,2.232
	C133.906,286.918,133.054,284.575,132.781,282.18"/>
<path id="path135-6" class="st5" d="M169.74,288.303c-1.029,2.578-2.116,5.204-2.822,7.897c-0.635,2.426-1.142,8.355,2.047,9.519
	c3.059,1.117,4.169-4.241,4.129-6.345c-0.06-3.161-1.542-6.394-2.661-9.298C170.206,289.485,169.974,288.891,169.74,288.303"/>
<path id="path137-4" class="st5" d="M169.724,288.245c-2.529,1.077-5.343,2.134-7.581,3.772c-1.986,1.454-5.148,5.761-3.304,8.396
	c1.863,2.66,5.751-0.388,7.007-2.185c1.802-2.577,2.648-6.101,3.594-9.073C169.535,288.853,169.628,288.546,169.724,288.245"/>
<path id="path139-7" class="st5" d="M169.731,288.245c2.529,1.077,5.343,2.134,7.581,3.772c1.986,1.454,5.148,5.761,3.303,8.396
	c-1.862,2.66-5.75-0.388-7.005-2.185c-1.802-2.577-2.646-6.101-3.594-9.073C169.92,288.853,169.826,288.546,169.731,288.245"/>
<path id="path141-1" class="st5" d="M163.254,287.892c-2.046,0.614-4.58,0.41-5.886-1.51c-0.697-1.022-0.857-4.988,1.363-4.218
	c0.385,0.134,0.702,1.873,1.173,2.273c0.899,0.764,2.581,0.741,3.673,0.828c1.468,0.118,2.995-0.04,4.436,0.162
	c0.001,0.01,0.005,0.017,0.009,0.025C166.653,286.525,164.912,287.372,163.254,287.892"/>
<path id="path143-1" class="st5" d="M176.1,287.892c2.046,0.614,4.581,0.41,5.887-1.51c0.697-1.022,0.856-4.988-1.363-4.218
	c-0.385,0.134-0.702,1.873-1.173,2.273c-0.899,0.764-2.58,0.741-3.673,0.828c-1.468,0.118-2.994-0.04-4.436,0.162
	c-0.002,0.01-0.005,0.017-0.009,0.025C172.699,286.525,174.443,287.372,176.1,287.892"/>
<path id="path145-7" class="st5" d="M168.001,282.18c0.298-2.59,4.731-1.332,2.612,2.232
	C169.122,286.918,168.271,284.575,168.001,282.18"/>
<path id="path147-4" class="st5" d="M64.088,288.303c-1.029,2.577-2.117,5.204-2.822,7.897c-0.635,2.426-1.142,8.355,2.046,9.519
	c3.058,1.117,4.17-4.241,4.13-6.345c-0.06-3.164-1.544-6.392-2.661-9.298C64.554,289.485,64.322,288.891,64.088,288.303"/>
<path id="path149-4" class="st5" d="M64.071,288.245c-2.529,1.077-5.343,2.134-7.58,3.772c-1.987,1.454-5.149,5.761-3.304,8.396
	c1.863,2.66,5.75-0.389,7.006-2.185c1.801-2.577,2.646-6.101,3.593-9.073C63.882,288.854,63.977,288.546,64.071,288.245"/>
<path id="path151-2" class="st5" d="M64.079,288.245c2.529,1.077,5.342,2.135,7.58,3.772c1.987,1.452,5.149,5.761,3.304,8.396
	c-1.863,2.66-5.75-0.388-7.006-2.185c-1.836-2.628-2.696-6.239-3.656-9.273C64.226,288.72,64.153,288.479,64.079,288.245"/>
<path id="path153-2" class="st5" d="M57.602,287.892c-2.046,0.614-4.58,0.41-5.886-1.51c-0.697-1.022-0.856-4.989,1.363-4.218
	c0.386,0.134,0.703,1.873,1.174,2.273c0.899,0.764,2.581,0.741,3.673,0.828c1.468,0.118,2.994-0.04,4.436,0.162
	c0.002,0.01,0.005,0.017,0.009,0.025C61.001,286.525,59.259,287.372,57.602,287.892"/>
<path id="path155-5" class="st5" d="M70.447,287.892c2.046,0.614,4.58,0.412,5.887-1.51c0.696-1.022,0.855-4.989-1.363-4.218
	c-0.386,0.134-0.703,1.873-1.173,2.273c-0.899,0.764-2.581,0.741-3.673,0.828c-1.468,0.118-2.994-0.04-4.436,0.162
	c-0.001,0.01-0.004,0.017-0.009,0.025C67.048,286.525,68.791,287.372,70.447,287.892"/>
<path id="path157-6" class="st5" d="M62.347,282.18c0.3-2.59,4.731-1.332,2.613,2.232C63.47,286.919,62.62,284.575,62.347,282.18"/>
<path id="path159-9" class="st5" d="M196.17,290.053c2.396,1.3,4.987,2.9,7.639,3.594c2.413,0.632,6.982,0.022,7.421-3.208
	c0.425-3.118-3.929-4.518-6.277-4.242c-2.929,0.344-6,2.342-8.565,3.733C196.316,289.968,196.241,290.013,196.17,290.053"/>
<path id="path161-8" class="st5" d="M196.125,290.072c1.031,3.309,4.23,15.944,9.989,12.958c2.806-1.454,0.549-6.266-0.921-7.903
	c-2.073-2.306-5.511-3.517-8.29-4.721C196.645,290.293,196.382,290.182,196.125,290.072"/>
<path id="path163-0" class="st5" d="M196.12,290.062c1.034-3.312,4.232-15.951,9.994-12.958c2.804,1.456,0.55,6.254-0.921,7.893
	c-2.074,2.308-5.513,3.524-8.293,4.733C196.64,289.842,196.378,289.951,196.12,290.062"/>
<path id="path165-5" class="st5" d="M195.818,297.631c0.466,2.129,0.563,5.322-1.291,6.877c-1.207,1.012-4.328,0.679-3.61-1.592
	c0.134-0.42,1.585-0.861,1.946-1.375c0.746-1.067,0.638-3.059,0.708-4.288c0.097-1.716-0.058-3.486,0.139-5.183
	c0.007-0.003,0.015-0.005,0.021-0.01C194.698,293.729,195.393,295.741,195.818,297.631"/>
<path id="path167-8" class="st5" d="M195.818,282.62c0.468-2.131,0.567-5.324-1.291-6.878c-1.207-1.01-4.332-0.681-3.61,1.592
	c0.133,0.418,1.587,0.858,1.946,1.373c0.746,1.066,0.638,3.062,0.708,4.29c0.097,1.717-0.058,3.486,0.139,5.183
	c0.007,0.003,0.015,0.006,0.021,0.01C194.696,286.524,195.398,284.509,195.818,282.62"/>
<path id="path169-8" class="st5" d="M190.93,292.085c-2.298-0.562-1.316-5.596,1.911-3.052
	C194.782,290.563,193.319,291.672,190.93,292.085"/>
<path id="path171-2" class="st5" d="M196.174,248.901c2.396,1.302,4.988,2.9,7.64,3.596c2.408,0.632,6.983,0.022,7.416-3.21
	c0.417-3.115-3.928-4.517-6.277-4.242c-2.926,0.341-6,2.34-8.56,3.733C196.32,248.818,196.245,248.863,196.174,248.901"/>
<path id="path173-8" class="st5" d="M196.12,248.921c1.036,3.31,4.232,15.945,9.994,12.958c2.805-1.455,0.55-6.263-0.921-7.898
	c-2.077-2.307-5.514-3.519-8.293-4.727C196.64,249.141,196.378,249.031,196.12,248.921"/>
<path id="path175-5" class="st5" d="M196.125,248.911c1.031-3.313,4.227-15.945,9.989-12.958c2.806,1.455,0.55,6.261-0.921,7.897
	c-2.074,2.308-5.511,3.521-8.29,4.728C196.645,248.69,196.382,248.8,196.125,248.911"/>
<path id="path177-4" class="st5" d="M195.818,256.474c0.468,2.136,0.567,5.319-1.291,6.878c-1.204,1.011-4.333,0.693-3.61-1.587
	c0.133-0.417,1.587-0.858,1.946-1.372c0.746-1.067,0.638-3.062,0.708-4.292c0.097-1.717-0.058-3.486,0.139-5.183
	c0.007-0.002,0.015-0.006,0.021-0.01C194.696,252.573,195.397,254.587,195.818,256.474"/>
<path id="path179-4" class="st5" d="M195.818,241.47c0.466-2.129,0.563-5.322-1.291-6.878c-1.205-1.011-4.335-0.68-3.61,1.592
	c0.134,0.417,1.586,0.857,1.946,1.372c0.746,1.068,0.638,3.062,0.708,4.292c0.097,1.717-0.058,3.486,0.139,5.183
	c0.007,0.003,0.015,0.006,0.021,0.01C194.698,245.372,195.393,243.359,195.818,241.47"/>
<path id="path181-0" class="st5" d="M190.93,250.934c-2.298-0.561-1.313-5.602,1.911-3.058
	C194.784,249.411,193.319,250.52,190.93,250.934"/>
<path id="path183-1" class="st5" d="M196.17,207.749c2.394,1.304,4.992,2.904,7.644,3.596c2.413,0.632,6.977,0.022,7.416-3.208
	c0.424-3.116-3.928-4.523-6.277-4.248c-2.93,0.344-6.001,2.347-8.565,3.738C196.316,207.667,196.243,207.711,196.17,207.749"/>
<path id="path185-0" class="st5" d="M196.12,207.769c1.036,3.313,4.232,15.946,9.994,12.958c2.805-1.454,0.55-6.261-0.921-7.897
	c-2.077-2.308-5.514-3.521-8.293-4.728C196.64,207.991,196.378,207.88,196.12,207.769"/>
<path id="path187-0" class="st5" d="M196.12,207.759c1.036-3.31,4.232-15.945,9.994-12.958c2.805,1.455,0.55,6.263-0.921,7.898
	c-2.077,2.307-5.514,3.521-8.293,4.727C196.64,207.539,196.378,207.65,196.12,207.759"/>
<path id="path189-5" class="st5" d="M195.818,215.329c0.466,2.13,0.563,5.322-1.291,6.878c-1.207,1.012-4.332,0.68-3.61-1.592
	c0.133-0.418,1.587-0.858,1.946-1.373c0.746-1.067,0.638-3.062,0.708-4.29c0.097-1.709-0.082-3.514,0.151-5.188
	C194.708,211.388,195.397,213.456,195.818,215.329"/>
<path id="path191-5" class="st5" d="M195.818,200.318c0.466-2.129,0.563-5.322-1.291-6.877c-1.207-1.013-4.332-0.681-3.61,1.592
	c0.133,0.418,1.587,0.858,1.946,1.372c0.746,1.067,0.638,3.062,0.708,4.291c0.097,1.709-0.082,3.514,0.151,5.188
	C194.708,204.26,195.397,202.191,195.818,200.318"/>
<path id="path193-3" class="st5" d="M190.93,209.784c-2.299-0.561-1.313-5.592,1.911-3.058
	C194.787,208.257,193.314,209.365,190.93,209.784"/>
<path id="path195-6" class="st5" d="M196.17,125.448c2.395,1.301,4.99,2.903,7.639,3.596c2.413,0.631,6.982,0.022,7.421-3.209
	c0.425-3.118-3.929-4.518-6.277-4.242c-2.93,0.345-6,2.342-8.565,3.733C196.316,125.366,196.241,125.409,196.17,125.448"/>
<path id="path197-7" class="st5" d="M196.125,125.468c1.031,3.31,4.23,15.943,9.989,12.957c2.806-1.454,0.549-6.266-0.921-7.902
	c-2.072-2.305-5.511-3.517-8.29-4.722C196.645,125.689,196.382,125.578,196.125,125.468"/>
<path id="path199-5" class="st5" d="M196.12,125.458c1.034-3.312,4.234-15.952,9.994-12.958c2.804,1.456,0.55,6.254-0.921,7.892
	c-2.074,2.309-5.514,3.524-8.293,4.732C196.64,125.238,196.378,125.348,196.12,125.458"/>
<path id="path201-9" class="st5" d="M195.818,133.027c0.466,2.13,0.563,5.324-1.291,6.879c-1.279,1.074-4.289,0.624-3.581-1.651
	c0.107-0.341,1.661-0.956,1.996-1.485c0.701-1.109,0.578-3.109,0.642-4.36c0.081-1.624-0.102-3.373,0.146-4.953
	C194.698,129.125,195.393,131.138,195.818,133.027"/>
<path id="path203-5" class="st5" d="M195.818,118.017c0.468-2.131,0.567-5.322-1.291-6.878c-1.205-1.01-4.333-0.682-3.61,1.592
	c0.133,0.418,1.587,0.858,1.946,1.372c0.746,1.066,0.638,3.062,0.708,4.291c0.097,1.717-0.058,3.486,0.139,5.183
	c0.007,0.002,0.015,0.006,0.021,0.01C194.697,121.92,195.398,119.906,195.818,118.017"/>
<path id="path205-5" class="st5" d="M190.93,127.482c-2.298-0.562-1.316-5.595,1.911-3.052
	C194.782,125.959,193.319,127.067,190.93,127.482"/>
<path id="path207-1" class="st5" d="M196.174,84.298c2.396,1.303,4.988,2.899,7.64,3.596c2.41,0.633,6.983,0.022,7.416-3.209
	c0.417-3.116-3.928-4.517-6.277-4.242c-2.926,0.341-6,2.342-8.56,3.733C196.32,84.214,196.245,84.259,196.174,84.298"/>
<path id="path209-8" class="st5" d="M196.12,84.317c1.036,3.312,4.232,15.946,9.994,12.958c2.805-1.454,0.55-6.262-0.921-7.897
	c-2.077-2.307-5.514-3.519-8.293-4.727C196.64,84.538,196.378,84.427,196.12,84.317"/>
<path id="path211-9" class="st5" d="M196.125,84.307c1.031-3.312,4.227-15.945,9.989-12.957c2.806,1.454,0.549,6.261-0.921,7.897
	c-2.074,2.307-5.51,3.521-8.29,4.728C196.645,84.086,196.382,84.197,196.125,84.307"/>
<path id="path213-6" class="st5" d="M195.818,91.871c0.468,2.136,0.567,5.319-1.291,6.878c-1.204,1.011-4.334,0.693-3.61-1.587
	c0.133-0.418,1.587-0.858,1.946-1.372c0.746-1.066,0.638-3.062,0.708-4.291c0.097-1.717-0.058-3.486,0.139-5.183
	c0.007-0.002,0.015-0.006,0.021-0.01C194.696,87.971,195.397,89.984,195.818,91.871"/>
<path id="path215-2" class="st5" d="M195.818,76.866c0.468-2.13,0.563-5.322-1.291-6.877c-1.205-1.011-4.328-0.685-3.61,1.587
	c0.134,0.422,1.585,0.86,1.946,1.377c0.746,1.068,0.638,3.062,0.708,4.292c0.097,1.717-0.058,3.486,0.139,5.183
	c0.007,0.002,0.015,0.006,0.021,0.01C194.698,80.769,195.393,78.755,195.818,76.866"/>
<path id="path217-1" class="st5" d="M190.93,86.33c-2.298-0.559-1.315-5.602,1.911-3.057
	C194.784,84.807,193.319,85.917,190.93,86.33"/>
<path id="path219-8" class="st5" d="M196.17,43.147c2.392,1.304,4.992,2.903,7.644,3.596c2.413,0.631,6.977,0.021,7.416-3.208
	c0.424-3.117-3.928-4.523-6.277-4.248c-2.93,0.344-6.001,2.347-8.565,3.738C196.316,43.064,196.243,43.107,196.17,43.147"/>
<path id="path221-2" class="st5" d="M196.12,43.166c1.036,3.312,4.232,15.946,9.994,12.958c2.805-1.454,0.55-6.262-0.921-7.897
	c-2.077-2.307-5.514-3.519-8.293-4.727C196.64,43.387,196.378,43.277,196.12,43.166"/>
<path id="path223-9" class="st5" d="M196.12,43.157c1.036-3.312,4.232-15.946,9.994-12.958c2.805,1.454,0.55,6.262-0.921,7.897
	c-2.077,2.307-5.514,3.519-8.293,4.727C196.64,42.936,196.378,43.047,196.12,43.157"/>
<path id="path225-3" class="st5" d="M195.818,50.725c0.466,2.129,0.563,5.322-1.291,6.878c-1.207,1.012-4.332,0.68-3.61-1.592
	c0.133-0.417,1.587-0.858,1.946-1.372c0.746-1.067,0.638-3.062,0.708-4.292c0.097-1.709-0.082-3.515,0.151-5.188
	C194.708,46.783,195.397,48.853,195.818,50.725"/>
<path id="path227-6" class="st5" d="M195.818,35.715c0.466-2.13,0.563-5.322-1.291-6.878c-1.207-1.012-4.332-0.681-3.61,1.592
	c0.133,0.417,1.587,0.857,1.946,1.372c0.746,1.067,0.638,3.062,0.708,4.292c0.097,1.709-0.082,3.514,0.151,5.187
	C194.708,39.656,195.397,37.587,195.818,35.715"/>
<path id="path229-5" class="st5" d="M190.93,45.18c-2.299-0.56-1.313-5.592,1.911-3.057C194.787,43.652,193.314,44.761,190.93,45.18
	"/>
<path id="path231-2" class="st5" d="M196.17,166.599c2.392,1.304,4.992,2.904,7.644,3.596c2.413,0.63,6.977,0.021,7.416-3.21
	c0.424-3.118-3.928-4.518-6.277-4.242c-2.93,0.345-6,2.342-8.565,3.733C196.316,166.516,196.243,166.56,196.17,166.599"/>
<path id="path233-7" class="st5" d="M196.12,166.619c1.036,3.312,4.232,15.946,9.994,12.958c2.805-1.454,0.55-6.261-0.921-7.898
	c-2.077-2.307-5.514-3.519-8.293-4.727C196.64,166.839,196.378,166.729,196.12,166.619"/>
<path id="path235-1" class="st5" d="M196.12,166.609c1.036-3.311,4.232-15.946,9.994-12.957c2.805,1.454,0.55,6.261-0.921,7.897
	c-2.077,2.307-5.514,3.521-8.293,4.729C196.64,166.389,196.378,166.498,196.12,166.609"/>
<path id="path237-4" class="st5" d="M195.818,174.178c0.466,2.129,0.563,5.322-1.291,6.877c-1.208,1.015-4.328,0.681-3.61-1.592
	c0.133-0.418,1.586-0.863,1.946-1.375c0.746-1.068,0.638-3.063,0.708-4.293c0.097-1.715-0.058-3.482,0.139-5.178
	c0.007-0.002,0.015-0.005,0.021-0.01C194.698,170.276,195.393,172.288,195.818,174.178"/>
<path id="path239-6" class="st5" d="M195.818,159.167c0.466-2.131,0.565-5.321-1.291-6.878c-1.207-1.012-4.332-0.681-3.61,1.592
	c0.133,0.417,1.587,0.859,1.946,1.372c0.746,1.067,0.638,3.062,0.708,4.291c0.097,1.709-0.082,3.514,0.151,5.188
	C194.706,163.108,195.397,161.04,195.818,159.167"/>
<path id="path241-4" class="st5" d="M190.93,168.627c-2.293-0.546-1.317-5.597,1.911-3.047
	C194.777,167.11,193.314,168.222,190.93,168.627"/>
<path id="path243-0" class="st5" d="M38.161,290.053c-2.395,1.3-4.988,2.9-7.639,3.594c-2.413,0.632-6.981,0.022-7.421-3.208
	c-0.425-3.118,3.928-4.518,6.276-4.242c2.93,0.344,6.001,2.342,8.565,3.733C38.015,289.968,38.09,290.013,38.161,290.053"/>
<path id="path245-5" class="st5" d="M38.207,290.072c-1.031,3.309-4.231,15.942-9.991,12.958c-2.805-1.454-0.548-6.266,0.922-7.903
	c2.073-2.306,5.511-3.517,8.289-4.721C37.686,290.293,37.948,290.182,38.207,290.072"/>
<path id="path247-2" class="st5" d="M38.211,290.062c-1.033-3.313-4.233-15.95-9.995-12.958c-2.803,1.456-0.55,6.254,0.922,7.893
	c2.075,2.307,5.511,3.524,8.293,4.733C37.689,289.842,37.953,289.951,38.211,290.062"/>
<path id="path249-4" class="st5" d="M38.513,297.631c-0.467,2.129-0.563,5.322,1.291,6.877c1.207,1.012,4.329,0.679,3.609-1.592
	c-0.133-0.42-1.584-0.859-1.945-1.375c-0.746-1.067-0.639-3.059-0.709-4.288c-0.097-1.716,0.058-3.486-0.138-5.183
	c-0.007-0.003-0.015-0.005-0.021-0.01C39.634,293.729,38.938,295.741,38.513,297.631"/>
<path id="path251-9" class="st5" d="M38.513,282.62c-0.469-2.131-0.566-5.324,1.291-6.878c1.207-1.01,4.332-0.681,3.609,1.592
	c-0.133,0.418-1.585,0.858-1.945,1.373c-0.746,1.066-0.639,3.062-0.709,4.29c-0.097,1.716,0.058,3.487-0.138,5.183
	c-0.007,0.003-0.015,0.006-0.021,0.01C39.634,286.524,38.933,284.509,38.513,282.62"/>
<path id="path253-4" class="st5" d="M43.401,292.085c2.298-0.563,1.314-5.595-1.912-3.052
	C39.548,290.563,41.012,291.672,43.401,292.085"/>
<path id="path255-2" class="st5" d="M38.156,248.901c-2.397,1.302-4.987,2.9-7.639,3.596c-2.41,0.632-6.983,0.022-7.416-3.21
	c-0.418-3.115,3.927-4.517,6.276-4.242c2.928,0.341,6.001,2.342,8.561,3.733C38.012,248.818,38.085,248.863,38.156,248.901"/>
<path id="path257-1" class="st5" d="M38.211,248.921c-1.036,3.312-4.232,15.945-9.995,12.958c-2.804-1.454-0.55-6.263,0.922-7.898
	c2.076-2.307,5.512-3.519,8.293-4.727C37.689,249.141,37.953,249.031,38.211,248.921"/>
<path id="path259-5" class="st5" d="M38.207,248.911c-1.032-3.313-4.228-15.945-9.991-12.958c-2.804,1.454-0.549,6.26,0.922,7.897
	c2.074,2.307,5.51,3.522,8.289,4.728C37.686,248.69,37.948,248.8,38.207,248.911"/>
<path id="path261-2" class="st5" d="M38.513,256.474c-0.468,2.136-0.566,5.32,1.291,6.878c1.205,1.011,4.334,0.693,3.609-1.587
	c-0.133-0.418-1.585-0.858-1.945-1.372c-0.746-1.067-0.639-3.062-0.709-4.292c-0.097-1.717,0.058-3.486-0.138-5.183
	c-0.007-0.002-0.015-0.006-0.021-0.01C39.636,252.575,38.934,254.587,38.513,256.474"/>
<path id="path263-7" class="st5" d="M38.513,241.47c-0.467-2.13-0.563-5.322,1.291-6.878c1.206-1.011,4.335-0.68,3.609,1.592
	c-0.133,0.417-1.585,0.857-1.945,1.372c-0.747,1.068-0.639,3.062-0.709,4.292c-0.097,1.717,0.058,3.486-0.138,5.183
	c-0.007,0.003-0.015,0.006-0.021,0.01C39.634,245.371,38.938,243.36,38.513,241.47"/>
<path id="path265-0" class="st5" d="M43.401,250.934c2.299-0.561,1.312-5.602-1.912-3.058
	C39.546,249.411,41.013,250.52,43.401,250.934"/>
<path id="path267-5" class="st5" d="M38.161,207.749c-2.393,1.304-4.993,2.904-7.643,3.596c-2.413,0.632-6.978,0.022-7.416-3.208
	c-0.423-3.116,3.926-4.523,6.276-4.248c2.931,0.344,6.002,2.347,8.565,3.738C38.015,207.667,38.089,207.712,38.161,207.749"/>
<path id="path269-4" class="st5" d="M38.211,207.769c-1.036,3.313-4.231,15.945-9.995,12.958c-2.804-1.452-0.55-6.261,0.922-7.897
	c2.076-2.307,5.513-3.519,8.293-4.728C37.689,207.991,37.953,207.88,38.211,207.769"/>
<path id="path271-9" class="st5" d="M38.211,207.759c-1.036-3.312-4.232-15.944-9.995-12.958c-2.804,1.454-0.549,6.263,0.922,7.898
	c2.076,2.307,5.513,3.519,8.293,4.727C37.689,207.539,37.953,207.65,38.211,207.759"/>
<path id="path273-9" class="st5" d="M38.513,215.329c-0.467,2.13-0.563,5.322,1.291,6.878c1.207,1.012,4.332,0.68,3.609-1.592
	c-0.133-0.418-1.585-0.858-1.945-1.373c-0.747-1.067-0.639-3.062-0.709-4.29c-0.096-1.709,0.084-3.516-0.151-5.188
	C39.623,211.389,38.935,213.456,38.513,215.329"/>
<path id="path275-4" class="st5" d="M38.513,200.318c-0.467-2.129-0.563-5.322,1.291-6.877c1.207-1.012,4.331-0.681,3.609,1.592
	c-0.133,0.418-1.586,0.858-1.945,1.372c-0.747,1.067-0.639,3.062-0.709,4.291c-0.096,1.709,0.084,3.516-0.151,5.188
	C39.622,204.259,38.935,202.191,38.513,200.318"/>
<path id="path277-9" class="st5" d="M43.401,209.784c2.3-0.562,1.312-5.591-1.912-3.058
	C39.543,208.257,41.018,209.365,43.401,209.784"/>
<path id="path279-2" class="st5" d="M38.161,125.448c-2.394,1.301-4.989,2.902-7.639,3.596c-2.413,0.631-6.981,0.022-7.421-3.209
	c-0.424-3.118,3.928-4.518,6.276-4.242c2.931,0.345,6.001,2.342,8.565,3.733C38.015,125.365,38.09,125.41,38.161,125.448"/>
<path id="path281-2" class="st5" d="M38.207,125.468c-1.032,3.31-4.231,15.942-9.991,12.957c-2.805-1.454-0.548-6.266,0.922-7.902
	c2.073-2.305,5.511-3.518,8.289-4.722C37.686,125.689,37.948,125.578,38.207,125.468"/>
<path id="path283-3" class="st5" d="M38.211,125.458c-1.033-3.313-4.234-15.95-9.995-12.958c-2.803,1.456-0.551,6.254,0.922,7.892
	c2.075,2.309,5.512,3.524,8.293,4.732C37.689,125.238,37.953,125.348,38.211,125.458"/>
<path id="path285-8" class="st5" d="M38.513,133.027c-0.467,2.13-0.563,5.323,1.291,6.879c1.28,1.073,4.289,0.624,3.581-1.651
	c-0.106-0.341-1.661-0.956-1.996-1.485c-0.702-1.109-0.579-3.109-0.641-4.36c-0.082-1.624,0.102-3.374-0.147-4.953
	C39.633,129.126,38.938,131.138,38.513,133.027"/>
<path id="path287-7" class="st5" d="M38.513,118.017c-0.468-2.131-0.566-5.323,1.291-6.878c1.207-1.01,4.332-0.682,3.609,1.592
	c-0.133,0.418-1.585,0.858-1.945,1.372c-0.746,1.066-0.639,3.062-0.709,4.291c-0.097,1.717,0.058,3.486-0.138,5.183
	c-0.007,0.002-0.015,0.006-0.021,0.01C39.634,121.92,38.933,119.906,38.513,118.017"/>
<path id="path289-1" class="st5" d="M43.401,127.482c2.298-0.563,1.314-5.595-1.912-3.052
	C39.548,125.96,41.013,127.067,43.401,127.482"/>
<path id="path291-9" class="st5" d="M38.156,84.298c-2.396,1.302-4.987,2.899-7.639,3.596c-2.41,0.633-6.983,0.022-7.416-3.209
	c-0.418-3.116,3.927-4.517,6.276-4.242c2.928,0.341,6,2.343,8.561,3.733C38.012,84.214,38.085,84.259,38.156,84.298"/>
<path id="path293-4" class="st5" d="M38.211,84.317c-1.036,3.312-4.232,15.944-9.995,12.958c-2.804-1.453-0.549-6.262,0.922-7.897
	c2.076-2.307,5.512-3.519,8.293-4.727C37.689,84.538,37.953,84.427,38.211,84.317"/>
<path id="path295-6" class="st5" d="M38.207,84.307c-1.032-3.312-4.228-15.944-9.991-12.957c-2.805,1.453-0.549,6.261,0.922,7.897
	c2.074,2.307,5.51,3.521,8.289,4.728C37.686,84.086,37.948,84.197,38.207,84.307"/>
<path id="path297-6" class="st5" d="M38.513,91.871c-0.468,2.136-0.566,5.32,1.291,6.878c1.205,1.01,4.334,0.693,3.609-1.587
	c-0.133-0.418-1.585-0.858-1.945-1.372c-0.746-1.066-0.639-3.062-0.709-4.291c-0.097-1.717,0.058-3.486-0.138-5.183
	c-0.007-0.002-0.015-0.006-0.021-0.01C39.636,87.971,38.934,89.983,38.513,91.871"/>
<path id="path299-2" class="st5" d="M38.513,76.866c-0.467-2.13-0.563-5.322,1.291-6.877c1.205-1.011,4.328-0.685,3.609,1.587
	c-0.133,0.422-1.583,0.86-1.945,1.377c-0.747,1.068-0.639,3.062-0.709,4.292c-0.097,1.717,0.058,3.486-0.138,5.183
	c-0.008,0.002-0.015,0.006-0.021,0.01C39.634,80.767,38.938,78.755,38.513,76.866"/>
<path id="path301-7" class="st5" d="M43.401,86.33c2.298-0.56,1.313-5.602-1.912-3.057C39.547,84.807,41.013,85.917,43.401,86.33"/>
<path id="path303-1" class="st5" d="M38.161,43.147c-2.393,1.304-4.993,2.903-7.643,3.596c-2.413,0.631-6.978,0.021-7.416-3.208
	c-0.423-3.117,3.926-4.523,6.276-4.248c2.931,0.344,6.002,2.347,8.565,3.738C38.015,43.064,38.089,43.107,38.161,43.147"/>
<path id="path305-3" class="st5" d="M38.211,43.166c-1.036,3.313-4.232,15.945-9.995,12.958c-2.804-1.453-0.549-6.262,0.922-7.897
	c2.076-2.307,5.513-3.519,8.293-4.727C37.689,43.387,37.953,43.277,38.211,43.166"/>
<path id="path307-6" class="st5" d="M38.211,43.157c-1.035-3.312-4.232-15.944-9.995-12.958c-2.804,1.453-0.549,6.262,0.922,7.897
	c2.076,2.307,5.513,3.519,8.293,4.727C37.689,42.936,37.953,43.047,38.211,43.157"/>
<path id="path309-5" class="st5" d="M38.513,50.725c-0.467,2.13-0.563,5.322,1.291,6.878c1.207,1.012,4.332,0.68,3.609-1.592
	c-0.133-0.418-1.585-0.858-1.945-1.372c-0.747-1.067-0.639-3.062-0.709-4.292c-0.096-1.708,0.084-3.516-0.151-5.188
	C39.622,46.785,38.934,48.853,38.513,50.725"/>
<path id="path311-8" class="st5" d="M38.513,35.715c-0.467-2.13-0.563-5.322,1.291-6.878c1.207-1.012,4.332-0.681,3.609,1.592
	c-0.133,0.417-1.585,0.857-1.945,1.372c-0.747,1.067-0.639,3.062-0.709,4.292c-0.096,1.708,0.084,3.515-0.151,5.187
	C39.623,39.654,38.935,37.588,38.513,35.715"/>
<path id="path313-9" class="st5" d="M43.401,45.18c2.299-0.561,1.312-5.591-1.912-3.057C39.543,43.653,41.018,44.762,43.401,45.18"
	/>
<path id="path315-3" class="st5" d="M38.161,166.599c-2.393,1.304-4.993,2.904-7.643,3.596c-2.414,0.63-6.978,0.021-7.416-3.21
	c-0.424-3.118,3.927-4.518,6.276-4.242c2.931,0.345,6.001,2.342,8.565,3.733C38.015,166.516,38.089,166.56,38.161,166.599"/>
<path id="path317-4" class="st5" d="M38.211,166.619c-1.036,3.312-4.232,15.944-9.995,12.958c-2.804-1.454-0.549-6.261,0.922-7.898
	c2.076-2.306,5.513-3.519,8.293-4.727C37.689,166.839,37.953,166.729,38.211,166.619"/>
<path id="path319-1" class="st5" d="M38.211,166.609c-1.036-3.312-4.232-15.944-9.995-12.957c-2.804,1.453-0.549,6.261,0.922,7.897
	c2.076,2.307,5.512,3.52,8.293,4.729C37.689,166.389,37.953,166.498,38.211,166.609"/>
<path id="path321-9" class="st5" d="M38.513,174.178c-0.467,2.13-0.563,5.322,1.291,6.877c1.208,1.015,4.328,0.681,3.609-1.592
	c-0.133-0.419-1.585-0.862-1.945-1.375c-0.747-1.067-0.639-3.063-0.709-4.293c-0.097-1.715,0.058-3.482-0.138-5.178
	c-0.007-0.002-0.015-0.005-0.021-0.01C39.634,170.276,38.938,172.288,38.513,174.178"/>
<path id="path323-3" class="st5" d="M38.513,159.167c-0.465-2.131-0.565-5.321,1.291-6.878c1.207-1.012,4.332-0.68,3.609,1.592
	c-0.133,0.417-1.586,0.858-1.945,1.372c-0.747,1.067-0.639,3.062-0.709,4.291c-0.096,1.708,0.084,3.516-0.151,5.188
	C39.624,163.106,38.935,161.041,38.513,159.167"/>
<path id="path325-9" class="st5" d="M43.401,168.627c2.293-0.547,1.315-5.597-1.912-3.047
	C39.554,167.11,41.017,168.222,43.401,168.627"/>
<path id="path327-5" class="st6" d="M103.942,198.653h0.034"/>
<path id="path329-6" sodipodi:nodetypes="cscsccc" class="st1" d="M107.103,154.93c2.072,0,20.124-0.173,20.124,0.171v12.468v7.201
	c0,0.551,0,4.212,0,4.212c-1.28,0.213-20.231-0.606-20.231,0.044L107.103,154.93"/>
<path id="path331-8" class="st7" d="M108.361,159.339c0.839-0.98,1.677-1.96,2.516-2.939c0.419,1.469,0.838,2.939,1.258,4.409
	C110.876,160.319,109.619,159.829,108.361,159.339"/>
<path id="path333-6" class="st7" d="M123.455,156.4c0.837,0.979,1.677,1.959,2.514,2.939c-1.257,0.49-2.514,0.98-3.773,1.47
	C122.615,159.339,123.035,157.869,123.455,156.4"/>
<path id="path335-5" class="st7" d="M123.534,176.892c0.838-0.98,1.677-1.96,2.516-2.94c-1.259-0.49-2.516-0.98-3.773-1.47
	C122.695,173.952,123.114,175.422,123.534,176.892"/>
<path id="path337-6" class="st7" d="M110.876,176.975c-0.838-0.98-1.677-1.959-2.516-2.939c1.258-0.49,2.516-0.98,3.773-1.47
	C111.715,174.037,111.296,175.505,110.876,176.975"/>
<path id="path339-7" class="st7" d="M117.165,154.93c-0.829,2.907-1.658,5.813-2.488,8.719c-0.309,1.082-6.372,2.57-7.575,3.038
	c1.202,0.469,7.266,1.956,7.575,3.039c0.829,2.905,1.658,5.812,2.488,8.719c0.83-2.906,1.658-5.814,2.487-8.719
	c0.309-1.083,6.373-2.57,7.575-3.039c-1.202-0.468-7.265-1.956-7.575-3.038C118.824,160.743,117.995,157.837,117.165,154.93"/>
<path id="path341-1" class="st2" d="M178.796,159.339c-0.41,1.914-0.819,3.828-1.229,5.742c-0.142,0.667-4.289,1.382-5.06,1.607
	c0.771,0.226,4.917,0.94,5.06,1.607c0.41,1.914,0.819,3.828,1.229,5.743c0.409-1.915,0.819-3.829,1.229-5.743
	c0.142-0.667,4.289-1.38,5.06-1.607c-0.771-0.225-4.917-0.939-5.06-1.607C179.615,163.167,179.205,161.253,178.796,159.339"/>
<path id="path343-8" class="st2" d="M178.783,138.754c-0.409,1.914-0.819,3.828-1.227,5.742c-0.142,0.667-4.289,1.381-5.061,1.606
	c0.772,0.226,4.919,0.94,5.061,1.607c0.409,1.914,0.819,3.828,1.227,5.742c0.41-1.914,0.82-3.828,1.23-5.742
	c0.142-0.667,4.289-1.381,5.06-1.607c-0.771-0.225-4.917-0.939-5.06-1.606C179.603,142.581,179.193,140.668,178.783,138.754"/>
<path id="path345-0" class="st2" d="M178.817,179.9c-0.41,1.914-0.819,3.828-1.227,5.742c-0.144,0.667-4.289,1.382-5.061,1.607
	c0.771,0.225,4.917,0.94,5.061,1.607c0.409,1.914,0.818,3.828,1.227,5.743c0.41-1.915,0.82-3.829,1.229-5.743
	c0.144-0.667,4.29-1.382,5.061-1.607c-0.771-0.225-4.917-0.94-5.061-1.607C179.637,183.728,179.227,181.814,178.817,179.9"/>
<path id="path347-9" class="st2" d="M161.187,159.339c-0.409,1.914-0.819,3.828-1.229,5.742c-0.142,0.667-4.289,1.382-5.06,1.607
	c0.771,0.226,4.917,0.94,5.06,1.607c0.41,1.914,0.82,3.828,1.229,5.743c0.41-1.915,0.819-3.829,1.229-5.743
	c0.142-0.667,4.289-1.38,5.06-1.607c-0.771-0.225-4.917-0.939-5.06-1.607C162.006,163.167,161.597,161.253,161.187,159.339"/>
<path id="path349-3" class="st2" d="M161.174,138.754c-0.409,1.914-0.819,3.828-1.229,5.742c-0.142,0.667-4.289,1.381-5.06,1.606
	c0.771,0.226,4.917,0.94,5.06,1.607c0.41,1.914,0.82,3.828,1.229,5.742c0.41-1.914,0.819-3.828,1.229-5.742
	c0.142-0.667,4.289-1.381,5.06-1.607c-0.771-0.225-4.917-0.939-5.06-1.606C161.993,142.581,161.584,140.668,161.174,138.754"/>
<path id="path351-8" class="st2" d="M161.208,179.9c-0.409,1.914-0.818,3.828-1.227,5.742c-0.142,0.667-4.289,1.382-5.061,1.607
	c0.772,0.225,4.919,0.94,5.061,1.607c0.41,1.914,0.819,3.828,1.227,5.743c0.41-1.915,0.82-3.829,1.23-5.743
	c0.142-0.667,4.289-1.382,5.06-1.607c-0.771-0.225-4.917-0.94-5.06-1.607C162.028,183.728,161.618,181.814,161.208,179.9"/>
<path id="path353-5" class="st2" d="M125.969,219.596c-0.409,1.914-0.818,3.828-1.227,5.743c-0.142,0.667-4.289,1.38-5.06,1.605
	c0.771,0.225,4.917,0.94,5.06,1.608c0.41,1.913,0.819,3.828,1.227,5.74c0.41-1.913,0.82-3.828,1.23-5.74
	c0.142-0.668,4.289-1.383,5.06-1.608c-0.771-0.225-4.917-0.939-5.06-1.605C126.789,223.423,126.379,221.509,125.969,219.596"/>
<path id="path355-9" class="st2" d="M108.361,219.596c-0.409,1.914-0.819,3.828-1.228,5.743c-0.143,0.667-4.289,1.38-5.061,1.605
	c0.771,0.225,4.918,0.94,5.061,1.608c0.409,1.913,0.819,3.828,1.228,5.74c0.41-1.913,0.819-3.828,1.229-5.74
	c0.143-0.668,4.289-1.383,5.06-1.608c-0.771-0.225-4.917-0.939-5.06-1.605C109.18,223.423,108.771,221.509,108.361,219.596"/>
<path id="path357-3" class="st2" d="M143.566,219.561c-0.41,1.915-0.82,3.829-1.229,5.743c-0.142,0.667-4.29,1.38-5.061,1.607
	c0.771,0.225,4.919,0.94,5.061,1.607c0.409,1.914,0.819,3.828,1.229,5.742c0.41-1.914,0.819-3.828,1.227-5.742
	c0.144-0.667,4.289-1.382,5.061-1.607c-0.772-0.226-4.917-0.94-5.061-1.607C144.385,223.39,143.976,221.476,143.566,219.561"/>
<path id="path359-6" class="st2" d="M90.802,219.615c-0.409,1.914-0.819,3.828-1.228,5.741c-0.142,0.668-4.289,1.382-5.06,1.607
	c0.771,0.225,4.918,0.939,5.06,1.607c0.409,1.914,0.819,3.828,1.228,5.742c0.41-1.914,0.819-3.828,1.229-5.742
	c0.142-0.668,4.289-1.382,5.06-1.607c-0.771-0.225-4.917-0.939-5.06-1.607C91.621,223.443,91.212,221.529,90.802,219.615"/>
<path id="path361-6" class="st2" d="M178.758,219.591c-0.41,1.915-0.819,3.828-1.227,5.743c-0.144,0.667-4.29,1.38-5.062,1.607
	c0.772,0.224,4.919,0.939,5.062,1.607c0.409,1.913,0.817,3.828,1.227,5.74c0.41-1.913,0.819-3.828,1.229-5.74
	c0.142-0.668,4.289-1.383,5.061-1.607c-0.772-0.226-4.919-0.94-5.061-1.607C179.577,223.418,179.168,221.506,178.758,219.591"/>
<path id="path363-3" class="st2" d="M161.149,219.591c-0.409,1.915-0.819,3.828-1.227,5.743c-0.144,0.667-4.289,1.38-5.061,1.607
	c0.772,0.224,4.917,0.939,5.061,1.607c0.409,1.913,0.819,3.828,1.227,5.74c0.41-1.913,0.82-3.828,1.23-5.74
	c0.142-0.668,4.289-1.383,5.06-1.607c-0.771-0.226-4.917-0.94-5.06-1.607C161.969,223.418,161.559,221.506,161.149,219.591"/>
<path id="path365-1" class="st2" d="M125.969,240.171c-0.409,1.914-0.818,3.828-1.227,5.742c-0.142,0.667-4.289,1.382-5.06,1.607
	c0.771,0.225,4.917,0.939,5.06,1.607c0.41,1.914,0.819,3.828,1.227,5.742c0.41-1.914,0.82-3.828,1.23-5.742
	c0.142-0.668,4.289-1.382,5.06-1.607c-0.771-0.225-4.917-0.94-5.06-1.607C126.789,243.999,126.379,242.085,125.969,240.171"/>
<path id="path367-1" class="st2" d="M108.361,240.171c-0.409,1.914-0.819,3.828-1.228,5.742c-0.143,0.667-4.289,1.382-5.061,1.607
	c0.771,0.225,4.918,0.939,5.061,1.607c0.409,1.914,0.819,3.828,1.228,5.742c0.41-1.914,0.819-3.828,1.229-5.742
	c0.143-0.668,4.289-1.382,5.06-1.607c-0.771-0.225-4.917-0.94-5.06-1.607C109.18,243.999,108.771,242.085,108.361,240.171"/>
<path id="path369-0" class="st2" d="M143.566,240.137c-0.41,1.914-0.82,3.828-1.229,5.743c-0.142,0.667-4.29,1.38-5.061,1.607
	c0.771,0.224,4.919,0.939,5.061,1.607c0.409,1.913,0.819,3.828,1.229,5.74c0.41-1.913,0.819-3.828,1.227-5.74
	c0.144-0.668,4.289-1.383,5.061-1.607c-0.772-0.226-4.917-0.94-5.061-1.607C144.385,243.964,143.976,242.05,143.566,240.137"/>
<path id="path371-1" class="st2" d="M90.802,240.191c-0.409,1.914-0.819,3.828-1.228,5.742c-0.142,0.667-4.289,1.382-5.06,1.607
	c0.771,0.225,4.918,0.939,5.06,1.607c0.409,1.914,0.819,3.828,1.228,5.741c0.41-1.914,0.819-3.828,1.229-5.741
	c0.142-0.668,4.289-1.382,5.06-1.607c-0.771-0.225-4.917-0.94-5.06-1.607C91.621,244.019,91.212,242.105,90.802,240.191"/>
<path id="path373-1" class="st2" d="M178.758,240.166c-0.41,1.914-0.819,3.828-1.227,5.742c-0.144,0.668-4.29,1.382-5.062,1.607
	c0.772,0.225,4.919,0.94,5.062,1.607c0.409,1.914,0.817,3.828,1.227,5.742c0.41-1.914,0.819-3.828,1.229-5.742
	c0.142-0.667,4.289-1.382,5.061-1.607c-0.772-0.225-4.919-0.939-5.061-1.607C179.577,243.994,179.168,242.08,178.758,240.166"/>
<path id="path375-8" class="st2" d="M161.149,240.166c-0.409,1.914-0.819,3.828-1.227,5.742c-0.144,0.668-4.289,1.382-5.061,1.607
	c0.772,0.225,4.917,0.94,5.061,1.607c0.409,1.914,0.819,3.828,1.227,5.742c0.41-1.914,0.82-3.828,1.23-5.742
	c0.142-0.667,4.289-1.382,5.06-1.607c-0.771-0.225-4.917-0.939-5.06-1.607C161.969,243.994,161.559,242.08,161.149,240.166"/>
<path id="path377-6" class="st2" d="M125.969,260.747c-0.409,1.913-0.818,3.828-1.227,5.742c-0.142,0.667-4.289,1.382-5.06,1.605
	c0.771,0.226,4.917,0.94,5.06,1.607c0.41,1.915,0.819,3.828,1.227,5.743c0.41-1.915,0.82-3.828,1.23-5.743
	c0.142-0.667,4.289-1.38,5.06-1.607c-0.771-0.224-4.917-0.939-5.06-1.605C126.789,264.575,126.379,262.66,125.969,260.747"/>
<path id="path379-1" class="st2" d="M108.361,260.747c-0.409,1.913-0.819,3.828-1.228,5.742c-0.143,0.667-4.289,1.382-5.061,1.605
	c0.771,0.226,4.918,0.94,5.061,1.607c0.409,1.915,0.819,3.828,1.228,5.743c0.41-1.915,0.819-3.828,1.229-5.743
	c0.143-0.667,4.289-1.38,5.06-1.607c-0.771-0.224-4.917-0.939-5.06-1.605C109.18,264.575,108.771,262.66,108.361,260.747"/>
<path id="path381-9" class="st2" d="M143.566,260.712c-0.41,1.914-0.82,3.828-1.229,5.743c-0.142,0.667-4.29,1.38-5.061,1.605
	c0.771,0.225,4.919,0.939,5.061,1.607c0.409,1.914,0.819,3.828,1.229,5.742c0.41-1.914,0.819-3.828,1.227-5.742
	c0.144-0.668,4.289-1.382,5.061-1.607c-0.772-0.225-4.917-0.939-5.061-1.605C144.385,264.54,143.976,262.626,143.566,260.712"/>
<path id="path383-5" class="st2" d="M90.802,260.767c-0.409,1.913-0.819,3.828-1.228,5.74c-0.142,0.667-4.289,1.382-5.06,1.607
	c0.771,0.226,4.918,0.94,5.06,1.607c0.409,1.915,0.819,3.828,1.228,5.743c0.41-1.915,0.819-3.828,1.229-5.743
	c0.142-0.667,4.289-1.38,5.06-1.607c-0.771-0.225-4.917-0.94-5.06-1.607C91.621,264.595,91.212,262.68,90.802,260.767"/>
<path id="path385-9" class="st2" d="M178.758,260.742c-0.41,1.913-0.819,3.828-1.227,5.741c-0.144,0.667-4.29,1.382-5.062,1.607
	c0.772,0.225,4.919,0.939,5.062,1.605c0.409,1.915,0.817,3.828,1.227,5.743c0.41-1.915,0.819-3.828,1.229-5.743
	c0.142-0.667,4.289-1.38,5.061-1.605c-0.772-0.225-4.919-0.94-5.061-1.607C179.577,264.57,179.168,262.655,178.758,260.742"/>
<path id="path387-0" class="st2" d="M161.149,260.742c-0.409,1.913-0.819,3.828-1.227,5.741c-0.144,0.667-4.289,1.382-5.061,1.607
	c0.772,0.225,4.917,0.939,5.061,1.605c0.409,1.915,0.819,3.828,1.227,5.743c0.41-1.915,0.82-3.828,1.23-5.743
	c0.142-0.667,4.289-1.38,5.06-1.605c-0.771-0.225-4.917-0.94-5.06-1.607C161.969,264.57,161.559,262.655,161.149,260.742"/>
<path id="path389-3" class="st2" d="M125.969,200.49c-0.409,1.915-0.818,3.828-1.227,5.743c-0.142,0.667-4.289,1.38-5.06,1.607
	c0.771,0.225,4.917,0.939,5.06,1.607c0.41,1.913,0.819,3.828,1.227,5.74c0.41-1.913,0.82-3.828,1.23-5.74
	c0.142-0.668,4.289-1.383,5.06-1.607c-0.771-0.226-4.917-0.94-5.06-1.607C126.789,204.317,126.379,202.405,125.969,200.49"/>
<path id="path391-7" class="st2" d="M108.361,200.49c-0.409,1.915-0.819,3.828-1.228,5.743c-0.143,0.667-4.289,1.38-5.061,1.607
	c0.771,0.224,4.918,0.939,5.061,1.607c0.409,1.913,0.819,3.828,1.228,5.74c0.41-1.913,0.819-3.828,1.229-5.74
	c0.143-0.668,4.289-1.383,5.06-1.607c-0.771-0.226-4.917-0.94-5.06-1.607C109.18,204.317,108.771,202.405,108.361,200.49"/>
<path id="path393-3" class="st2" d="M143.566,200.456c-0.41,1.914-0.82,3.828-1.229,5.742c-0.142,0.667-4.29,1.382-5.061,1.607
	c0.771,0.225,4.919,0.94,5.061,1.607c0.409,1.914,0.819,3.828,1.229,5.742c0.41-1.914,0.819-3.828,1.227-5.742
	c0.144-0.667,4.289-1.382,5.061-1.607c-0.772-0.225-4.917-0.94-5.061-1.607C144.385,204.284,143.976,202.37,143.566,200.456"/>
<path id="path395-8" class="st2" d="M90.802,200.509c-0.409,1.914-0.819,3.828-1.228,5.743c-0.142,0.667-4.289,1.38-5.06,1.605
	c0.771,0.225,4.918,0.94,5.06,1.608c0.409,1.913,0.819,3.828,1.228,5.74c0.41-1.913,0.819-3.828,1.229-5.74
	c0.142-0.668,4.289-1.383,5.06-1.608c-0.771-0.225-4.917-0.939-5.06-1.605C91.621,204.337,91.212,202.423,90.802,200.509"/>
<path id="path397-7" class="st2" d="M178.758,200.485c-0.41,1.915-0.819,3.828-1.227,5.743c-0.144,0.667-4.29,1.38-5.062,1.607
	c0.772,0.225,4.919,0.939,5.062,1.607c0.409,1.913,0.817,3.828,1.227,5.742c0.41-1.914,0.819-3.829,1.229-5.742
	c0.142-0.668,4.289-1.382,5.061-1.607c-0.772-0.226-4.919-0.94-5.061-1.607C179.577,204.312,179.168,202.4,178.758,200.485"/>
<path id="path399-3" class="st2" d="M161.149,200.485c-0.409,1.915-0.819,3.828-1.227,5.743c-0.144,0.667-4.289,1.38-5.061,1.607
	c0.772,0.225,4.917,0.939,5.061,1.607c0.409,1.913,0.819,3.828,1.227,5.742c0.41-1.914,0.82-3.829,1.23-5.742
	c0.142-0.668,4.289-1.382,5.06-1.607c-0.771-0.226-4.917-0.94-5.06-1.607C161.969,204.312,161.559,202.4,161.149,200.485"/>
<path id="path401-8" class="st2" d="M108.361,118.188c-0.409,1.914-0.819,3.828-1.228,5.742c-0.143,0.667-4.289,1.382-5.061,1.607
	c0.771,0.225,4.918,0.939,5.061,1.607c0.409,1.914,0.819,3.828,1.228,5.742c0.41-1.914,0.819-3.828,1.229-5.742
	c0.143-0.667,4.289-1.382,5.06-1.607c-0.771-0.225-4.917-0.94-5.06-1.607C109.18,122.016,108.771,120.102,108.361,118.188"/>
<path id="path403-3" class="st2" d="M90.752,118.188c-0.409,1.914-0.819,3.828-1.228,5.742c-0.142,0.667-4.289,1.382-5.061,1.607
	c0.771,0.225,4.919,0.939,5.061,1.607c0.409,1.914,0.819,3.828,1.228,5.742c0.41-1.914,0.819-3.828,1.229-5.742
	c0.143-0.667,4.289-1.382,5.06-1.607c-0.771-0.225-4.917-0.94-5.06-1.607C91.571,122.016,91.162,120.102,90.752,118.188"/>
<path id="path405-4" class="st2" d="M143.574,118.188c-0.409,1.914-0.818,3.828-1.227,5.742c-0.142,0.667-4.289,1.382-5.061,1.607
	c0.772,0.225,4.919,0.939,5.061,1.607c0.41,1.914,0.819,3.828,1.227,5.742c0.41-1.914,0.82-3.828,1.23-5.742
	c0.142-0.667,4.289-1.382,5.06-1.607c-0.771-0.225-4.917-0.94-5.06-1.607C144.394,122.016,143.984,120.102,143.574,118.188"/>
<path id="path407-7" class="st2" d="M125.962,118.188c-0.41,1.914-0.82,3.828-1.229,5.742c-0.142,0.667-4.289,1.382-5.061,1.607
	c0.772,0.225,4.919,0.939,5.061,1.607c0.409,1.914,0.819,3.828,1.229,5.742c0.41-1.914,0.819-3.828,1.229-5.742
	c0.142-0.667,4.289-1.382,5.06-1.607c-0.771-0.225-4.917-0.94-5.06-1.607C126.78,122.016,126.372,120.102,125.962,118.188"/>
<path id="path409-2" class="st2" d="M90.761,97.598c-0.409,1.914-0.819,3.828-1.229,5.742c-0.143,0.667-4.289,1.382-5.06,1.607
	c0.771,0.226,4.918,0.94,5.06,1.607c0.409,1.914,0.819,3.828,1.229,5.742c0.409-1.914,0.819-3.828,1.229-5.742
	c0.142-0.667,4.289-1.381,5.06-1.607c-0.771-0.225-4.917-0.939-5.06-1.607C91.58,101.426,91.17,99.512,90.761,97.598"/>
<path id="path411-0" class="st2" d="M108.361,97.613c-0.409,1.914-0.819,3.828-1.228,5.742c-0.143,0.667-4.289,1.381-5.061,1.607
	c0.771,0.225,4.918,0.939,5.061,1.607c0.409,1.914,0.819,3.828,1.228,5.742c0.41-1.914,0.819-3.828,1.229-5.742
	c0.143-0.667,4.289-1.382,5.06-1.607c-0.771-0.226-4.917-0.94-5.06-1.607C109.18,101.441,108.771,99.526,108.361,97.613"/>
<path id="path413-9" class="st2" d="M125.969,97.613c-0.409,1.914-0.818,3.828-1.227,5.742c-0.142,0.667-4.289,1.381-5.06,1.607
	c0.771,0.225,4.917,0.939,5.06,1.607c0.41,1.914,0.819,3.828,1.227,5.742c0.41-1.914,0.82-3.828,1.23-5.742
	c0.142-0.667,4.289-1.382,5.06-1.607c-0.771-0.226-4.917-0.94-5.06-1.607C126.789,101.441,126.379,99.526,125.969,97.613"/>
<path id="path415-8" class="st2" d="M143.578,97.613c-0.41,1.914-0.82,3.828-1.229,5.742c-0.142,0.667-4.289,1.381-5.061,1.607
	c0.772,0.225,4.919,0.939,5.061,1.607c0.409,1.914,0.819,3.828,1.229,5.742c0.41-1.914,0.819-3.828,1.229-5.742
	c0.142-0.667,4.289-1.382,5.061-1.607c-0.772-0.226-4.919-0.94-5.061-1.607C144.397,101.441,143.988,99.526,143.578,97.613"/>
<path id="path417-3" class="st2" d="M178.779,118.164c-0.409,1.914-0.819,3.828-1.229,5.742c-0.142,0.667-4.289,1.381-5.06,1.606
	c0.771,0.226,4.917,0.94,5.06,1.607c0.41,1.914,0.82,3.828,1.229,5.742c0.409-1.914,0.819-3.828,1.229-5.742
	c0.142-0.667,4.289-1.381,5.06-1.607c-0.771-0.225-4.917-0.939-5.06-1.606C179.598,121.991,179.188,120.077,178.779,118.164"/>
<path id="path419-0" class="st2" d="M178.796,97.613c-0.41,1.914-0.819,3.828-1.229,5.742c-0.142,0.667-4.289,1.381-5.06,1.607
	c0.771,0.225,4.917,0.939,5.06,1.607c0.41,1.914,0.819,3.828,1.229,5.742c0.409-1.914,0.819-3.828,1.229-5.742
	c0.142-0.667,4.289-1.382,5.06-1.607c-0.771-0.226-4.917-0.94-5.06-1.607C179.615,101.441,179.205,99.526,178.796,97.613"/>
<path id="path421-2" class="st2" d="M161.171,118.164c-0.41,1.914-0.82,3.828-1.229,5.742c-0.142,0.667-4.289,1.381-5.061,1.606
	c0.772,0.226,4.919,0.94,5.061,1.607c0.409,1.914,0.819,3.828,1.229,5.742c0.41-1.914,0.819-3.828,1.227-5.742
	c0.144-0.667,4.29-1.381,5.061-1.607c-0.771-0.225-4.917-0.939-5.061-1.606C161.99,121.991,161.581,120.077,161.171,118.164"/>
<path id="path423-4" class="st2" d="M161.187,97.613c-0.409,1.914-0.819,3.828-1.229,5.742c-0.142,0.667-4.289,1.381-5.06,1.607
	c0.771,0.225,4.917,0.939,5.06,1.607c0.41,1.914,0.82,3.828,1.229,5.742c0.41-1.914,0.819-3.828,1.229-5.742
	c0.142-0.667,4.289-1.382,5.06-1.607c-0.771-0.226-4.917-0.94-5.06-1.607C162.006,101.441,161.597,99.526,161.187,97.613"/>
<path id="path425-2" class="st2" d="M108.361,77.037c-0.409,1.914-0.819,3.828-1.228,5.742c-0.143,0.667-4.289,1.381-5.061,1.607
	c0.771,0.225,4.918,0.939,5.061,1.606c0.409,1.914,0.819,3.828,1.228,5.742c0.41-1.914,0.819-3.828,1.229-5.742
	c0.143-0.667,4.289-1.381,5.06-1.606c-0.771-0.226-4.917-0.94-5.06-1.607C109.18,80.865,108.771,78.951,108.361,77.037"/>
<path id="path427-8" class="st2" d="M90.752,77.037c-0.409,1.914-0.819,3.828-1.228,5.742c-0.142,0.667-4.289,1.381-5.061,1.607
	c0.771,0.225,4.919,0.939,5.061,1.606c0.409,1.914,0.819,3.828,1.228,5.742c0.41-1.914,0.819-3.828,1.229-5.742
	c0.143-0.667,4.289-1.381,5.06-1.606c-0.771-0.226-4.917-0.94-5.06-1.607C91.571,80.865,91.162,78.951,90.752,77.037"/>
<path id="path429-2" class="st2" d="M143.574,77.037c-0.409,1.914-0.818,3.828-1.227,5.742c-0.142,0.667-4.289,1.381-5.061,1.607
	c0.772,0.225,4.919,0.939,5.061,1.606c0.41,1.914,0.819,3.828,1.227,5.742c0.41-1.914,0.82-3.828,1.23-5.742
	c0.142-0.667,4.289-1.381,5.06-1.606c-0.771-0.226-4.917-0.94-5.06-1.607C144.394,80.865,143.984,78.951,143.574,77.037"/>
<path id="path431-1" class="st2" d="M125.962,77.037c-0.41,1.914-0.82,3.828-1.229,5.742c-0.142,0.667-4.289,1.381-5.061,1.607
	c0.772,0.225,4.919,0.939,5.061,1.606c0.409,1.914,0.819,3.828,1.229,5.742c0.41-1.914,0.819-3.828,1.229-5.742
	c0.142-0.667,4.289-1.381,5.06-1.606c-0.771-0.226-4.917-0.94-5.06-1.607C126.78,80.865,126.372,78.951,125.962,77.037"/>
<path id="path433-4" class="st2" d="M90.761,56.447c-0.409,1.914-0.819,3.828-1.229,5.742c-0.142,0.667-4.289,1.382-5.06,1.607
	c0.771,0.226,4.917,0.94,5.06,1.607c0.409,1.914,0.819,3.828,1.229,5.742c0.409-1.914,0.819-3.828,1.229-5.742
	c0.142-0.667,4.289-1.381,5.06-1.607c-0.771-0.225-4.917-0.94-5.06-1.607C91.58,60.275,91.17,58.361,90.761,56.447"/>
<path id="path435-2" class="st2" d="M108.361,56.462c-0.409,1.914-0.819,3.828-1.228,5.742c-0.143,0.667-4.289,1.382-5.061,1.607
	c0.771,0.225,4.918,0.94,5.061,1.607c0.409,1.914,0.819,3.828,1.228,5.742c0.41-1.914,0.819-3.828,1.229-5.742
	c0.143-0.667,4.289-1.382,5.06-1.607c-0.771-0.225-4.917-0.94-5.06-1.607C109.18,60.29,108.771,58.376,108.361,56.462"/>
<path id="path437-5" class="st2" d="M125.969,56.462c-0.409,1.914-0.818,3.828-1.227,5.742c-0.142,0.667-4.289,1.382-5.06,1.607
	c0.771,0.225,4.917,0.94,5.06,1.607c0.41,1.914,0.819,3.828,1.227,5.742c0.41-1.914,0.82-3.828,1.23-5.742
	c0.142-0.667,4.289-1.382,5.06-1.607c-0.771-0.225-4.917-0.94-5.06-1.607C126.789,60.29,126.379,58.376,125.969,56.462"/>
<path id="path439-6" class="st2" d="M143.578,56.462c-0.41,1.914-0.82,3.828-1.229,5.742c-0.142,0.667-4.289,1.382-5.061,1.607
	c0.772,0.225,4.919,0.94,5.061,1.607c0.409,1.914,0.819,3.828,1.229,5.742c0.41-1.914,0.819-3.828,1.229-5.742
	c0.142-0.667,4.289-1.382,5.061-1.607c-0.772-0.225-4.919-0.94-5.061-1.607C144.397,60.29,143.988,58.376,143.578,56.462"/>
<path id="path441-1" class="st2" d="M178.779,77.013c-0.409,1.914-0.819,3.828-1.229,5.742c-0.142,0.667-4.289,1.382-5.06,1.607
	c0.771,0.225,4.917,0.94,5.06,1.607c0.41,1.914,0.82,3.828,1.229,5.741c0.409-1.914,0.819-3.828,1.229-5.741
	c0.142-0.667,4.289-1.382,5.06-1.607c-0.771-0.225-4.917-0.94-5.06-1.607C179.598,80.841,179.188,78.927,178.779,77.013"/>
<path id="path443-6" class="st2" d="M178.796,56.462c-0.41,1.914-0.819,3.828-1.229,5.742c-0.142,0.667-4.289,1.382-5.06,1.607
	c0.771,0.225,4.917,0.94,5.06,1.607c0.41,1.914,0.819,3.828,1.229,5.742c0.409-1.914,0.819-3.828,1.229-5.742
	c0.142-0.667,4.289-1.382,5.06-1.607c-0.771-0.225-4.917-0.94-5.06-1.607C179.615,60.29,179.205,58.376,178.796,56.462"/>
<path id="path445" class="st2" d="M161.171,77.013c-0.41,1.914-0.82,3.828-1.229,5.742c-0.142,0.667-4.289,1.382-5.061,1.607
	c0.772,0.225,4.919,0.94,5.061,1.607c0.409,1.914,0.819,3.828,1.229,5.741c0.41-1.914,0.819-3.828,1.227-5.741
	c0.144-0.667,4.29-1.382,5.061-1.607c-0.771-0.225-4.917-0.94-5.061-1.607C161.99,80.841,161.581,78.927,161.171,77.013"/>
<path id="path447" class="st2" d="M161.187,56.462c-0.409,1.914-0.819,3.828-1.229,5.742c-0.142,0.667-4.289,1.382-5.06,1.607
	c0.771,0.225,4.917,0.94,5.06,1.607c0.41,1.914,0.82,3.828,1.229,5.742c0.41-1.914,0.819-3.828,1.229-5.742
	c0.142-0.667,4.289-1.382,5.06-1.607c-0.771-0.225-4.917-0.94-5.06-1.607C162.006,60.29,161.597,58.376,161.187,56.462"/>
<path id="path449" class="st2" d="M55.522,179.934c-0.409,1.915-0.819,3.828-1.228,5.743c-0.142,0.667-4.289,1.38-5.06,1.607
	c0.771,0.225,4.918,0.939,5.06,1.607c0.409,1.913,0.819,3.828,1.228,5.742c0.41-1.914,0.819-3.829,1.229-5.742
	c0.143-0.668,4.289-1.382,5.06-1.607c-0.771-0.226-4.917-0.94-5.06-1.607C56.341,183.761,55.932,181.849,55.522,179.934"/>
<path id="path451" class="st2" d="M55.555,159.369c-0.409,1.914-0.819,3.828-1.228,5.742c-0.142,0.667-4.289,1.38-5.06,1.607
	c0.771,0.225,4.918,0.94,5.06,1.607c0.409,1.914,0.819,3.828,1.228,5.741c0.41-1.914,0.819-3.828,1.229-5.741
	c0.142-0.667,4.289-1.382,5.06-1.607c-0.771-0.226-4.917-0.94-5.06-1.607C56.375,163.196,55.965,161.283,55.555,159.369"/>
<path id="path453" class="st2" d="M55.576,138.759c-0.409,1.914-0.819,3.828-1.228,5.742c-0.143,0.667-4.289,1.381-5.06,1.607
	c0.771,0.225,4.917,0.94,5.06,1.607c0.409,1.914,0.819,3.828,1.228,5.742c0.41-1.914,0.819-3.828,1.229-5.742
	c0.142-0.667,4.289-1.382,5.06-1.607c-0.771-0.226-4.917-0.94-5.06-1.607C56.396,142.587,55.986,140.673,55.576,138.759"/>
<path id="path455" class="st2" d="M55.535,219.596c-0.409,1.914-0.819,3.828-1.228,5.743c-0.142,0.667-4.289,1.38-5.061,1.605
	c0.771,0.225,4.919,0.94,5.061,1.608c0.409,1.913,0.819,3.828,1.228,5.74c0.409-1.913,0.819-3.828,1.229-5.74
	c0.142-0.668,4.289-1.383,5.06-1.608c-0.771-0.225-4.917-0.939-5.06-1.605C56.353,223.423,55.944,221.509,55.535,219.596"/>
<path id="path457" class="st2" d="M55.535,240.171c-0.409,1.914-0.819,3.828-1.228,5.742c-0.142,0.667-4.289,1.382-5.061,1.607
	c0.771,0.225,4.919,0.939,5.061,1.607c0.409,1.914,0.819,3.828,1.228,5.742c0.409-1.914,0.819-3.828,1.229-5.742
	c0.142-0.668,4.289-1.382,5.06-1.607c-0.771-0.225-4.917-0.94-5.06-1.607C56.353,243.999,55.944,242.085,55.535,240.171"/>
<path id="path459" class="st2" d="M55.535,260.747c-0.409,1.913-0.819,3.828-1.228,5.742c-0.142,0.667-4.289,1.382-5.061,1.605
	c0.771,0.226,4.919,0.94,5.061,1.607c0.409,1.915,0.819,3.828,1.228,5.743c0.409-1.915,0.819-3.828,1.229-5.743
	c0.142-0.667,4.289-1.38,5.06-1.607c-0.771-0.224-4.917-0.939-5.06-1.605C56.353,264.575,55.944,262.66,55.535,260.747"/>
<path id="path461" class="st2" d="M55.535,200.49c-0.409,1.915-0.819,3.828-1.228,5.743c-0.142,0.667-4.289,1.38-5.061,1.607
	c0.771,0.224,4.919,0.939,5.061,1.607c0.409,1.913,0.819,3.828,1.228,5.74c0.409-1.913,0.819-3.828,1.229-5.74
	c0.142-0.668,4.289-1.382,5.06-1.607c-0.771-0.226-4.917-0.94-5.06-1.607C56.353,204.317,55.944,202.405,55.535,200.49"/>
<path id="path463" class="st2" d="M55.547,118.183c-0.409,1.914-0.819,3.828-1.229,5.742c-0.142,0.667-4.289,1.382-5.06,1.607
	c0.771,0.225,4.917,0.94,5.06,1.607c0.409,1.914,0.819,3.828,1.229,5.741c0.409-1.914,0.819-3.828,1.229-5.741
	c0.142-0.667,4.289-1.382,5.06-1.607c-0.771-0.225-4.918-0.94-5.06-1.607C56.366,122.011,55.957,120.097,55.547,118.183"/>
<path id="path465" class="st2" d="M55.535,97.613c-0.409,1.914-0.819,3.828-1.228,5.742c-0.142,0.667-4.289,1.381-5.061,1.607
	c0.771,0.225,4.919,0.939,5.061,1.607c0.409,1.914,0.819,3.828,1.228,5.742c0.409-1.914,0.819-3.828,1.229-5.742
	c0.142-0.667,4.289-1.382,5.06-1.607c-0.771-0.226-4.917-0.94-5.06-1.607C56.353,101.441,55.944,99.526,55.535,97.613"/>
<path id="path467" class="st2" d="M55.547,77.032c-0.409,1.914-0.819,3.828-1.229,5.742c-0.142,0.667-4.289,1.381-5.06,1.607
	c0.771,0.225,4.918,0.939,5.06,1.607c0.409,1.914,0.819,3.828,1.229,5.742c0.409-1.914,0.819-3.828,1.229-5.742
	c0.142-0.667,4.289-1.382,5.06-1.607c-0.771-0.226-4.918-0.94-5.06-1.607C56.366,80.861,55.957,78.947,55.547,77.032"/>
<path id="path469" class="st2" d="M55.535,56.462c-0.409,1.914-0.819,3.828-1.228,5.742c-0.142,0.667-4.289,1.382-5.061,1.607
	c0.771,0.225,4.919,0.94,5.061,1.607c0.409,1.914,0.819,3.828,1.228,5.742c0.409-1.914,0.819-3.828,1.229-5.742
	c0.142-0.667,4.289-1.382,5.06-1.607c-0.771-0.225-4.917-0.94-5.06-1.607C56.353,60.29,55.944,58.376,55.535,56.462"/>
<path id="path471" class="st2" d="M73.131,179.934c-0.409,1.915-0.819,3.828-1.228,5.743c-0.143,0.667-4.289,1.38-5.061,1.607
	c0.771,0.225,4.918,0.939,5.061,1.607c0.409,1.913,0.819,3.828,1.228,5.742c0.409-1.914,0.819-3.829,1.229-5.742
	c0.142-0.668,4.289-1.382,5.06-1.607c-0.771-0.226-4.918-0.94-5.06-1.607C73.949,183.761,73.54,181.849,73.131,179.934"/>
<path id="path473" class="st2" d="M73.164,159.369c-0.409,1.914-0.819,3.828-1.228,5.742c-0.143,0.667-4.289,1.38-5.06,1.607
	c0.771,0.225,4.917,0.94,5.06,1.607c0.409,1.914,0.819,3.828,1.228,5.741c0.41-1.914,0.819-3.828,1.229-5.741
	c0.143-0.667,4.289-1.382,5.06-1.607c-0.771-0.226-4.917-0.94-5.06-1.607C73.984,163.196,73.574,161.283,73.164,159.369"/>
<path id="path475" class="st2" d="M73.185,138.759c-0.409,1.914-0.819,3.828-1.228,5.742c-0.143,0.667-4.289,1.381-5.061,1.607
	c0.771,0.225,4.918,0.94,5.061,1.607c0.409,1.914,0.819,3.828,1.228,5.742c0.409-1.914,0.819-3.828,1.229-5.742
	c0.143-0.667,4.289-1.382,5.06-1.607c-0.771-0.226-4.917-0.94-5.06-1.607C74.005,142.587,73.595,140.673,73.185,138.759"/>
<path id="path477" class="st2" d="M73.143,219.596c-0.409,1.914-0.819,3.828-1.229,5.743c-0.142,0.667-4.289,1.38-5.06,1.605
	c0.771,0.225,4.917,0.94,5.06,1.608c0.409,1.913,0.819,3.828,1.229,5.74c0.409-1.913,0.819-3.828,1.228-5.74
	c0.143-0.668,4.289-1.383,5.061-1.608c-0.771-0.225-4.918-0.939-5.061-1.605C73.962,223.423,73.553,221.509,73.143,219.596"/>
<path id="path479" class="st2" d="M73.143,240.171c-0.409,1.914-0.819,3.828-1.229,5.742c-0.142,0.667-4.289,1.382-5.06,1.607
	c0.771,0.225,4.918,0.939,5.06,1.607c0.409,1.914,0.819,3.828,1.229,5.742c0.409-1.914,0.819-3.828,1.228-5.742
	c0.143-0.668,4.289-1.382,5.061-1.607c-0.771-0.225-4.918-0.94-5.061-1.607C73.962,243.999,73.553,242.085,73.143,240.171"/>
<path id="path481" class="st2" d="M73.143,260.747c-0.409,1.913-0.819,3.828-1.229,5.742c-0.142,0.667-4.289,1.382-5.06,1.605
	c0.771,0.226,4.918,0.94,5.06,1.607c0.409,1.915,0.819,3.828,1.229,5.743c0.409-1.915,0.819-3.828,1.228-5.743
	c0.143-0.667,4.289-1.38,5.061-1.607c-0.771-0.224-4.918-0.939-5.061-1.605C73.962,264.575,73.553,262.66,73.143,260.747"/>
<path id="path483" class="st2" d="M73.143,200.49c-0.409,1.915-0.819,3.828-1.229,5.743c-0.142,0.667-4.289,1.38-5.06,1.607
	c0.771,0.225,4.918,0.939,5.06,1.607c0.409,1.913,0.819,3.828,1.229,5.74c0.409-1.913,0.819-3.828,1.228-5.74
	c0.143-0.668,4.289-1.383,5.061-1.607c-0.771-0.226-4.918-0.94-5.061-1.607C73.962,204.317,73.553,202.405,73.143,200.49"/>
<path id="path485" class="st2" d="M73.156,118.183c-0.409,1.914-0.819,3.828-1.228,5.742c-0.142,0.667-4.289,1.382-5.06,1.607
	c0.771,0.225,4.918,0.94,5.06,1.607c0.409,1.914,0.819,3.828,1.228,5.741c0.41-1.914,0.819-3.828,1.229-5.741
	c0.143-0.667,4.289-1.382,5.06-1.607c-0.771-0.225-4.917-0.94-5.06-1.607C73.975,122.011,73.566,120.097,73.156,118.183"/>
<path id="path487" class="st2" d="M73.143,97.613c-0.409,1.914-0.819,3.828-1.229,5.742c-0.142,0.667-4.289,1.381-5.06,1.607
	c0.771,0.225,4.918,0.939,5.06,1.607c0.409,1.914,0.819,3.828,1.229,5.742c0.409-1.914,0.819-3.828,1.228-5.742
	c0.143-0.667,4.289-1.382,5.061-1.607c-0.771-0.226-4.918-0.94-5.061-1.607C73.962,101.441,73.553,99.526,73.143,97.613"/>
<path id="path489" class="st2" d="M73.156,77.032c-0.409,1.914-0.819,3.828-1.228,5.742c-0.142,0.667-4.289,1.381-5.06,1.607
	c0.771,0.225,4.918,0.939,5.06,1.607c0.409,1.914,0.819,3.828,1.228,5.742c0.41-1.914,0.819-3.828,1.229-5.742
	c0.143-0.667,4.289-1.382,5.06-1.607c-0.771-0.226-4.917-0.94-5.06-1.607C73.975,80.861,73.566,78.947,73.156,77.032"/>
<path id="path491" class="st2" d="M73.143,56.462c-0.409,1.914-0.819,3.828-1.229,5.742c-0.142,0.667-4.289,1.382-5.06,1.607
	c0.771,0.225,4.918,0.94,5.06,1.607c0.409,1.914,0.819,3.828,1.229,5.742c0.409-1.914,0.819-3.828,1.228-5.742
	c0.143-0.667,4.289-1.382,5.061-1.607c-0.771-0.225-4.918-0.94-5.061-1.607C73.962,60.29,73.553,58.376,73.143,56.462"/>
<path id="path493" class="st8" d="M22.518,20.455c-2.957,0-1.887,8.174-1.887,9.807c0,7.464,0,14.929,0,22.393
	c0,24.685,0,49.371,0,74.056c0,52.919,0,105.837,0,158.756c0,6.578,0,13.157,0,19.733c0,2.231-0.837,6.986,2.419,6.986
	c16.764,0,33.528,0,50.293,0c45.755,0,91.508,0,137.261,0c3.454,0,2.78-3.739,2.78-6.26c0-6.301,0-12.602,0-18.905
	c0-23.347,0-46.696,0-70.043c0-54.197,0-108.394,0-162.591c0-7.72,0-15.441,0-23.162c0-2.602,0.588-6.008,0-8.565
	c0-3.792-10.63-2.205-12.725-2.205c-10.019,0-20.036,0-30.054,0c-48.203,0-96.407,0-144.611,0
	C24.836,20.455,23.677,20.455,22.518,20.455"/>
</svg>
